<svg xmlns="http://www.w3.org/2000/svg" width="50.832" height="42.675" viewBox="0 0 50.832 42.675">
  <g id="bars" transform="translate(0 -34.019)">
    <g id="Group_408" data-name="Group 408" transform="translate(35.291 34.019)">
      <g id="Group_407" data-name="Group 407" transform="translate(0 0)">
        <path id="Path_1337" data-name="Path 1337" d="M301.353,34.019a6.977,6.977,0,0,0,0,13.953,7.009,7.009,0,0,0,7-7A6.938,6.938,0,0,0,301.353,34.019Zm0,12.419a5.442,5.442,0,1,1,5.466-5.418A5.464,5.464,0,0,1,301.353,46.438Z" transform="translate(-294.4 -34.019)" fill="#000f3b"/>
      </g>
    </g>
    <g id="Group_410" data-name="Group 410" transform="translate(39.99 36.464)">
      <g id="Group_409" data-name="Group 409" transform="translate(0 0)">
        <path id="Path_1338" data-name="Path 1338" d="M338.059,60.029a1.254,1.254,0,0,0-.144-.384,1.2,1.2,0,0,0-.192-.336c-.1-.1-.144-.192-.24-.288a.86.86,0,0,0-.336-.24,1.2,1.2,0,0,0-.336-.192c-.144-.048-.24-.144-.384-.192a3.3,3.3,0,0,1-.384-.144.363.363,0,0,1-.192-.1c-.048-.048-.144-.048-.192-.1s-.144-.048-.192-.1l-.144-.144a.249.249,0,0,1-.1-.192.288.288,0,0,1-.048-.192V57.2c0-.048.048-.144.048-.192.048-.048.048-.144.1-.192l.144-.144a.366.366,0,0,1,.24-.1.432.432,0,0,1,.24-.048h.288a.432.432,0,0,1,.24.048,2.078,2.078,0,0,1,.24.048c.048,0,.144.048.192.048.1,0,.144.048.192.048l.24.1.048-.288.1-.767V55.57l-.192-.048c-.048,0-.144-.048-.192-.048s-.1-.048-.192-.048a2.078,2.078,0,0,0-.24-.048c-.1,0-.144-.048-.24-.048h-.048v-.911H335.23v.959h-.048a1.7,1.7,0,0,0-.432.192.86.86,0,0,0-.336.24,2.084,2.084,0,0,0-.288.336.964.964,0,0,0-.192.384l-.144.432a1.631,1.631,0,0,0-.048.479,1.056,1.056,0,0,0,.048.384,1.254,1.254,0,0,0,.144.384c.048.1.144.24.192.336.1.1.144.192.24.288a.86.86,0,0,0,.336.24,1.2,1.2,0,0,0,.336.192,2.844,2.844,0,0,1,.384.192,3.3,3.3,0,0,1,.384.144.363.363,0,0,1,.192.1c.048.048.144.048.192.1s.1.1.144.1l.144.144c.048.048.048.1.1.192a2.077,2.077,0,0,1,.048.24v.24a.364.364,0,0,1-.1.192l-.144.144a.661.661,0,0,1-.192.144c-.048.048-.144.048-.192.1a2.076,2.076,0,0,1-.24.048h-.623a2.076,2.076,0,0,1-.24-.048.682.682,0,0,1-.288-.1c-.1-.048-.192-.048-.288-.1-.048,0-.1-.048-.144-.048s-.1-.048-.144-.048l-.288-.144-.048.336-.1.863v.144l.144.048a.641.641,0,0,1,.432.048.889.889,0,0,0,.336.1c.1.048.24.048.384.1a1.056,1.056,0,0,0,.384.048h.1v.959h1.151V62.475h.048a1.7,1.7,0,0,0,.432-.192,1.682,1.682,0,0,0,.384-.24,2.086,2.086,0,0,0,.288-.336,2.677,2.677,0,0,0,.24-.384l.144-.432a1.478,1.478,0,0,0,.048-.479A1.056,1.056,0,0,0,338.059,60.029Z" transform="translate(-333.6 -54.419)" fill="#000f3b"/>
      </g>
    </g>
    <g id="Group_412" data-name="Group 412" transform="translate(8.21 48.59)">
      <g id="Group_411" data-name="Group 411">
        <path id="Path_1339" data-name="Path 1339" d="M99.166,155.863a.817.817,0,0,0-1.1-.144L90.3,161.9l-10.021-4.172a.765.765,0,0,0-.719.1L68.814,165.5a.766.766,0,0,0-.192,1.055.7.7,0,0,0,.623.336.773.773,0,0,0,.432-.144l10.405-7.432,10.069,4.172a.863.863,0,0,0,.767-.1l8.1-6.425A.817.817,0,0,0,99.166,155.863Z" transform="translate(-68.489 -155.569)" fill="#000f3b"/>
      </g>
    </g>
    <g id="Group_414" data-name="Group 414" transform="translate(0 52.192)">
      <g id="Group_413" data-name="Group 413" transform="translate(0 0)">
        <path id="Path_1340" data-name="Path 1340" d="M50.107,208.587H46.559v-22.2a.757.757,0,0,0-.767-.767H38.743a.757.757,0,0,0-.767.767v22.2H35.387V194.058a.757.757,0,0,0-.767-.767h-7.1a.757.757,0,0,0-.767.767v14.529H24.167V192.907a.757.757,0,0,0-.767-.767H16.351a.757.757,0,0,0-.767.767v15.679H12.994V197.415a.757.757,0,0,0-.767-.767h-7.1a.757.757,0,0,0-.767.767v11.172H.767a.767.767,0,0,0,0,1.534H50.059a.757.757,0,0,0,.767-.767A.692.692,0,0,0,50.107,208.587Zm-38.7,0H5.9V198.182h5.514Zm11.22,0H17.118V193.675h5.514Zm11.172,0H28.29V194.825H33.8Zm11.22,0H39.51V187.153h5.514Z" transform="translate(0 -185.619)" fill="#000f3b"/>
      </g>
    </g>
  </g>
</svg>
