<svg id="Question_10_" xmlns="http://www.w3.org/2000/svg" width="40" height="40" viewBox="0 0 40 40">
  <g id="Group_403" data-name="Group 403" transform="translate(16.11 9.145)">
    <path id="Path_1329" data-name="Path 1329" d="M216.186,131.372h-2.593v-1.99a3.9,3.9,0,0,1,1.944-3.369,1.3,1.3,0,1,0-1.944-1.124H211a3.89,3.89,0,1,1,5.836,3.369,1.3,1.3,0,0,0-.649,1.124Z" transform="translate(-211 -121)"/>
  </g>
  <g id="Group_404" data-name="Group 404" transform="translate(18.703 21.032)">
    <path id="Path_1330" data-name="Path 1330" d="M241,271h2.593v2.593H241Z" transform="translate(-241 -271)"/>
  </g>
  <g id="Group_405" data-name="Group 405" transform="translate(0)">
    <path id="Path_1331" data-name="Path 1331" d="M20,32.134A12.922,12.922,0,0,1,8.494,25.2,9.29,9.29,0,0,1,0,16.105a9.29,9.29,0,0,1,8.494-9.1,12.948,12.948,0,0,1,23.013,0A9.29,9.29,0,0,1,40,16.105a9.29,9.29,0,0,1-8.494,9.1A12.922,12.922,0,0,1,20,32.134ZM20,2.29a10.594,10.594,0,0,0-9.666,6.277l-.3.67-.748.017a7.023,7.023,0,0,0-6.944,6.851,7.023,7.023,0,0,0,6.944,6.851l.748.017.3.67a10.634,10.634,0,0,0,19.331,0l.3-.67.748-.017a7.023,7.023,0,0,0,6.944-6.851,7.023,7.023,0,0,0-6.944-6.851l-.748-.017-.3-.67A10.594,10.594,0,0,0,20,2.29Z" transform="translate(0)"/>
  </g>
  <g id="Group_406" data-name="Group 406" transform="translate(5.273 32.221)">
    <path id="Path_1332" data-name="Path 1332" d="M64.89,429.779a3.89,3.89,0,1,1,3.89-3.89A3.894,3.894,0,0,1,64.89,429.779Zm0-5.186a1.3,1.3,0,1,0,1.3,1.3A1.3,1.3,0,0,0,64.89,424.593Z" transform="translate(-61 -422)"/>
  </g>
</svg>
