<svg xmlns="http://www.w3.org/2000/svg" width="83.613" height="96" viewBox="0 0 83.613 96">
  <g id="tracking" transform="translate(-40 -8)">
    <path id="Path_1378" data-name="Path 1378" d="M156.645,113.29A4.645,4.645,0,1,0,152,108.645a4.645,4.645,0,0,0,4.645,4.645Zm0-6.194a1.548,1.548,0,1,1-1.548,1.548A1.548,1.548,0,0,1,156.645,107.1Z" transform="translate(-90.323 -77.419)"/>
    <path id="Path_1379" data-name="Path 1379" d="M116.871,105.64a1.548,1.548,0,0,0,2.13,0,81.683,81.683,0,0,0,6.328-6.869c4.341-5.313,6.542-9.632,6.542-12.835a13.936,13.936,0,1,0-27.871,0c0,3.2,2.2,7.522,6.543,12.835A81.682,81.682,0,0,0,116.871,105.64ZM117.936,75.1a10.851,10.851,0,0,1,10.839,10.839c0,2.4-2.068,6.25-5.824,10.852-1.918,2.351-3.858,4.385-5.015,5.554-1.156-1.168-3.1-3.2-5.015-5.554-3.756-4.6-5.824-8.455-5.824-10.851A10.851,10.851,0,0,1,117.936,75.1Z" transform="translate(-51.613 -51.613)"/>
    <path id="Path_1380" data-name="Path 1380" d="M373.645,432a4.645,4.645,0,1,0,4.645,4.645A4.645,4.645,0,0,0,373.645,432Zm0,6.194a1.548,1.548,0,1,1,1.548-1.548A1.548,1.548,0,0,1,373.645,438.194Z" transform="translate(-265.323 -341.935)"/>
    <path id="Path_1381" data-name="Path 1381" d="M165.645,432a4.645,4.645,0,1,0,4.645,4.645A4.645,4.645,0,0,0,165.645,432Zm0,6.194a1.548,1.548,0,1,1,1.548-1.548A1.548,1.548,0,0,1,165.645,438.194Z" transform="translate(-97.581 -341.935)"/>
    <path id="Path_1382" data-name="Path 1382" d="M123.222,75.1,110.835,61.166a1.547,1.547,0,0,0-1.157-.521H98.839v-3.1A1.548,1.548,0,0,0,97.29,56H92.645V13.419A5.425,5.425,0,0,0,87.226,8H45.419A5.425,5.425,0,0,0,40,13.419V98.581A5.425,5.425,0,0,0,45.419,104H87.226a5.425,5.425,0,0,0,5.419-5.419V96.258h6.519a9.288,9.288,0,0,0,18.317,0h4.583a1.548,1.548,0,0,0,1.548-1.548V76.129a1.546,1.546,0,0,0-.391-1.028Zm-49.653-64-.871,3.1H59.79l-.774-3.1ZM45.419,100.9A2.325,2.325,0,0,1,43.1,98.581V13.419A2.325,2.325,0,0,1,45.419,11.1h10.4l1.256,5.021a1.548,1.548,0,0,0,1.5,1.173h15.29a1.548,1.548,0,0,0,1.49-1.128L76.786,11.1h10.44a2.325,2.325,0,0,1,2.323,2.323V56H55.484a1.548,1.548,0,0,0-1.548,1.548V94.71a1.548,1.548,0,0,0,1.548,1.548h3.422a9.256,9.256,0,0,0,2.241,4.645Zm22.645,0a6.194,6.194,0,1,1,6.194-6.194A6.194,6.194,0,0,1,68.065,100.9Zm21.484-2.323a2.325,2.325,0,0,1-2.323,2.323H74.982a9.256,9.256,0,0,0,2.241-4.645H89.548Zm6.194-5.419H77.223a9.288,9.288,0,0,0-18.317,0H57.032V82.323h38.71Zm0-13.936H57.032V59.1h38.71Zm17.313-10.839v-.064l5.561,6.257H103.484V68.387ZM108.323,100.9a6.194,6.194,0,1,1,6.194-6.194A6.194,6.194,0,0,1,108.323,100.9Zm12.194-15.484h-1.548a1.548,1.548,0,0,1,0-3.1h1.548Zm0-6.194h-1.548a4.645,4.645,0,0,0,0,9.29h1.548v4.645h-3.035a9.288,9.288,0,0,0-18.317,0h-.325V63.742h10.144l1.376,1.548h-8.423a1.548,1.548,0,0,0-1.548,1.548v9.29a1.548,1.548,0,0,0,1.548,1.548h18.581Z" transform="translate(0)"/>
  </g>
</svg>
