<svg xmlns="http://www.w3.org/2000/svg" width="96" height="92.791" viewBox="0 0 96 92.791">
  <g id="delivery-truck" transform="translate(-2 -4.006)">
    <path id="Path_1371" data-name="Path 1371" d="M97.68,63.592,83.28,44.408A1.623,1.623,0,0,0,82,43.769H66V34.177a1.6,1.6,0,0,0-1.6-1.6H46.8V11.8A4.812,4.812,0,0,0,42,7H13.2a4.812,4.812,0,0,0-4.8,4.8V24.281L2.32,39.437A5.171,5.171,0,0,0,2,41.2V57.629a7.931,7.931,0,0,0,1.6,4.8l1.056,1.407a8.058,8.058,0,0,1,1.488,6.187L3.616,93.151a1.617,1.617,0,0,0,.4,1.247,1.6,1.6,0,0,0,1.184.528H22.8a1.57,1.57,0,0,0,1.2-.544,1.547,1.547,0,0,0,.384-1.247l-.192-1.6A9.767,9.767,0,0,0,26,91.728a9.6,9.6,0,0,0,9.6-9.592H69.2a9.6,9.6,0,0,0,19.2,0h8a1.6,1.6,0,0,0,1.6-1.6V64.551A1.572,1.572,0,0,0,97.68,63.592ZM11.6,11.8a1.6,1.6,0,0,1,1.6-1.6H42a1.6,1.6,0,0,1,1.6,1.6V61.354a1.6,1.6,0,0,1-1.6,1.6H24.1a10.182,10.182,0,0,0,.3-2.414v-.671a9.7,9.7,0,0,0-.608-3.309H38.8a1.6,1.6,0,0,0,1.6-1.6V14.993a1.6,1.6,0,0,0-1.6-1.6H16.4a1.6,1.6,0,0,0-1.6,1.6V44.153l-1.344.8L11.6,43.113ZM23.936,42.634a4.616,4.616,0,0,0-5.488-.671L18,42.234V16.592H37.2V53.361H21.84c-.08-.08-.144-.176-.224-.256l2.992-4.972a4.5,4.5,0,0,0-.672-5.5ZM21.2,60.539a6.345,6.345,0,0,1-.865,3.2.059.059,0,0,0-.015.047c-.064.1-.128.192-.192.3l-1.136,1.695A4.732,4.732,0,0,0,18.24,69.2l2.752,22.525h-14l2.32-21.262a11.3,11.3,0,0,0-2.1-8.553L6.16,60.507a4.822,4.822,0,0,1-.96-2.878V41.2a1.575,1.575,0,0,1,.112-.607L8.4,32.882V43.113a3.221,3.221,0,0,0,.928,2.254l1.856,1.854a3.218,3.218,0,0,0,3.9.48L20.112,44.7a1.3,1.3,0,0,1,1.552.208,1.259,1.259,0,0,1,.192,1.583l-3.632,6.059a1.62,1.62,0,0,0,.24,1.95l.864.863A6.429,6.429,0,0,1,21.2,59.867ZM26,88.531a6.519,6.519,0,0,1-2.224-.4L22.4,76.877A6.244,6.244,0,0,1,26,75.742a6.4,6.4,0,0,1,6.272,5.132,6.134,6.134,0,0,1,.128,1.263A6.4,6.4,0,0,1,26,88.531Zm36.8-9.592H35.024A9.6,9.6,0,0,0,26,72.545a9.362,9.362,0,0,0-4.016.927l-.32-2.526H62.8Zm0-11.191H21.568c.032-.064.048-.128.08-.192l.944-1.407H42a4.812,4.812,0,0,0,4.8-4.8V35.776h16Zm16,20.782a6.395,6.395,0,1,1,6.4-6.395A6.4,6.4,0,0,1,78.8,88.531Zm16-9.592H87.84a9.587,9.587,0,0,0-18.08,0H66V46.966H81.2L94.8,65.079Z" transform="translate(0 1.871)"/>
    <path id="Path_1372" data-name="Path 1372" d="M20.5,17A6.5,6.5,0,1,0,27,23.5,6.5,6.5,0,0,0,20.5,17Zm0,9.749a3.25,3.25,0,1,1,3.25-3.25A3.25,3.25,0,0,1,20.5,26.749Z" transform="translate(7.154 7.745)"/>
    <path id="Path_1373" data-name="Path 1373" d="M44.952,16.952a3.25,3.25,0,1,0,4.6,0A3.25,3.25,0,0,0,44.952,16.952Z" transform="translate(25.125 7.175)"/>
    <path id="Path_1374" data-name="Path 1374" d="M55.543,14.855a9.749,9.749,0,0,0-13.785,0l2.3,2.3a6.662,6.662,0,0,1,9.19,0Z" transform="translate(23.692 4.995)"/>
    <path id="Path_1375" data-name="Path 1375" d="M61.907,12.759a16.248,16.248,0,0,0-22.978,0l2.3,2.3a13,13,0,0,1,18.383,0Z" transform="translate(21.585 2.496)"/>
    <path id="Path_1376" data-name="Path 1376" d="M65.972,12.957l2.3-2.3a22.774,22.774,0,0,0-32.172,0l2.3,2.3a19.521,19.521,0,0,1,27.575,0Z" transform="translate(19.817)"/>
    <path id="Path_1377" data-name="Path 1377" d="M53.749,34H45.625A1.625,1.625,0,0,0,44,35.625v13a1.625,1.625,0,0,0,1.625,1.625H63.5a1.625,1.625,0,0,0,1.3-2.6l-9.749-13A1.625,1.625,0,0,0,53.749,34Zm-6.5,13V37.25h5.687L60.248,47Z" transform="translate(24.753 17.841)"/>
    <rect id="Rectangle_37" data-name="Rectangle 37" width="4.874" height="3.25" transform="translate(67.546 69.56)"/>
  </g>
</svg>
