<svg xmlns="http://www.w3.org/2000/svg" width="96" height="96" viewBox="0 0 96 96">
  <g id="delivery-man" transform="translate(-1 -1)">
    <circle id="Ellipse_23" data-name="Ellipse 23" cx="1.571" cy="1.571" r="1.571" transform="translate(32.297 35.414)"/>
    <circle id="Ellipse_24" data-name="Ellipse 24" cx="1.571" cy="1.571" r="1.571" transform="translate(22.946 35.414)"/>
    <path id="Path_1341" data-name="Path 1341" d="M39.4,47.452h1.855a6.2,6.2,0,0,0,6.194-6.194h18.7a10.824,10.824,0,0,0,21.43,0H93.9a3.1,3.1,0,0,0,3.1-3.1V33.707a2.94,2.94,0,0,0-.094-.749L92.517,15.4A10.819,10.819,0,0,0,82,7.194H66.032V5.645A4.651,4.651,0,0,0,61.387,1H30.419a4.651,4.651,0,0,0-4.645,4.645V7.474a18.594,18.594,0,0,0-15.484,18.3V41.258a6.2,6.2,0,0,0,6.194,6.194h1.855a11.843,11.843,0,0,0,4.339,4.555v2.019l-11.571,3.3A14,14,0,0,0,1,70.73v9.238a10.847,10.847,0,0,0,9.29,10.715V97h57.29a4.615,4.615,0,0,0,3.1-1.208A4.608,4.608,0,0,0,73.774,97H92.355A4.651,4.651,0,0,0,97,92.355V79.968a4.651,4.651,0,0,0-4.645-4.645H90.522a4.593,4.593,0,0,0,.285-1.548V61.387a4.651,4.651,0,0,0-4.645-4.645H67.581a4.651,4.651,0,0,0-4.645,4.645V73.774a4.593,4.593,0,0,0,.285,1.548H56.742V70.73a14,14,0,0,0-10.106-13.4l-11.571-3.3V52.007A11.843,11.843,0,0,0,39.4,47.452ZM16.484,35.065a6.13,6.13,0,0,0-3.1.861V29.61a17.216,17.216,0,0,0,3.1,2.025Zm-1-7.742H42.255a14,14,0,0,1-8.738,3.1h-9.29a14,14,0,0,1-8.739-3.1Zm21.077-3.1a26.064,26.064,0,0,0-3.907-13.448,15.5,15.5,0,0,1,11.6,13.448ZM28.871,10.886c1.494,1.669,4.258,5.769,4.6,13.339h-9.2C24.613,16.656,27.377,12.556,28.871,10.886ZM44.355,29.611v6.316a6.116,6.116,0,0,0-3.1-.862v-3.43a17.125,17.125,0,0,0,3.1-2.024Zm-3.1,14.744h-.612a17.485,17.485,0,0,0,.612-4.645V38.161a3.1,3.1,0,1,1,0,6.194Zm6.194-9.29H67.093a10.742,10.742,0,0,0-.937,3.1h-18.7ZM76.871,47.452a7.742,7.742,0,1,1,7.742-7.742A7.751,7.751,0,0,1,76.871,47.452Zm10.715-9.29a10.742,10.742,0,0,0-.937-3.1H93.9v3.1ZM82,10.29a7.732,7.732,0,0,1,7.511,5.864l3.953,15.814H84.441a10.8,10.8,0,0,0-15.14,0H66.032V10.29ZM28.871,5.645A1.549,1.549,0,0,1,30.419,4.1H61.387a1.549,1.549,0,0,1,1.548,1.548V31.968H47.452V25.774A18.6,18.6,0,0,0,28.871,7.194Zm-3.786,5.133a26.074,26.074,0,0,0-3.907,13.448h-7.7a15.492,15.492,0,0,1,11.6-13.448Zm-8.6,33.577a3.1,3.1,0,1,1,0-6.194V39.71a17.485,17.485,0,0,0,.612,4.645Zm3.1-4.645V32.836a16.9,16.9,0,0,0,4.645.68h9.29a16.9,16.9,0,0,0,4.645-.68V39.71c0,6.584-3.646,10.839-9.29,10.839S19.581,46.293,19.581,39.71Zm3.928,17.3,3.481,5.8L23.634,67l-1.6-9.575ZM34.321,72.226h-10.9l5.45-6.811ZM38.161,93.9H19.581v-3.1h9.29a6.194,6.194,0,0,0,0-12.387h-9.29v-3.1H38.161Zm-9.29-12.387a3.1,3.1,0,1,1,0,6.194h-3.1V81.516ZM4.1,79.968V70.73a10.884,10.884,0,0,1,7.86-10.421l7.085-2.024,2.324,13.94H16.484v6.194H13.762c-.125,0-.249.029-.375.037V70.677h-3.1v8.813a6.036,6.036,0,0,0-.907.743L7.647,81.97l2.189,2.189,1.736-1.736a3.12,3.12,0,0,1,2.189-.907h8.916V87.71H11.839A7.751,7.751,0,0,1,4.1,79.968Zm9.29,10.839h3.1v3.1h-3.1Zm27.871,3.1v-3.1h3.1v3.1Zm26.323,0H47.452V90.683a10.854,10.854,0,0,0,8.23-6.07h7.254V78.419h4.645a1.549,1.549,0,0,1,1.548,1.548V92.355A1.549,1.549,0,0,1,67.581,93.9ZM93.9,79.968V92.355A1.549,1.549,0,0,1,92.355,93.9H73.774a1.549,1.549,0,0,1-1.548-1.548V79.968a1.549,1.549,0,0,1,1.548-1.548h4.645v6.194h9.29V78.419h4.645A1.549,1.549,0,0,1,93.9,79.968ZM81.516,78.419h3.1v3.1h-3.1ZM75.323,59.839h3.1v3.1h-3.1Zm-9.29,13.935V61.387a1.549,1.549,0,0,1,1.548-1.548h4.645v6.194h9.29V59.839h4.645a1.549,1.549,0,0,1,1.548,1.548V73.774a1.549,1.549,0,0,1-1.548,1.548H67.581A1.549,1.549,0,0,1,66.032,73.774Zm-6.194,4.645v3.1H56.618a10.878,10.878,0,0,0,.124-1.548V78.419ZM53.645,70.73v9.238A7.751,7.751,0,0,1,45.9,87.71H41.258V81.516H43.98a3.12,3.12,0,0,1,2.189.907l1.736,1.736,2.189-2.189-1.736-1.736a6.132,6.132,0,0,0-.907-.743V70.677h-3.1v7.779c-.125-.008-.249-.037-.375-.037H41.258V72.226H36.376L38.7,58.284l7.085,2.024a10.887,10.887,0,0,1,7.86,10.422ZM35.7,57.428,34.108,67l-3.355-4.195,3.481-5.8Zm-3.736-2.663-3.1,5.162-3.1-5.162V53.26a12.63,12.63,0,0,0,6.194,0Z"/>
    <path id="Path_1342" data-name="Path 1342" d="M21.244,33.244A6.25,6.25,0,0,0,27.487,27H24.365a3.122,3.122,0,0,1-6.244,0H15A6.25,6.25,0,0,0,21.244,33.244Z" transform="translate(7.652 14.236)"/>
    <path id="Path_1343" data-name="Path 1343" d="M51.683,23a4.683,4.683,0,1,0,4.683,4.683A4.688,4.688,0,0,0,51.683,23Zm0,6.244a1.561,1.561,0,1,1,1.561-1.561A1.561,1.561,0,0,1,51.683,29.244Z" transform="translate(25.164 12.035)"/>
    <path id="Path_1344" data-name="Path 1344" d="M63.731,21.487V16.8a7.813,7.813,0,0,0-7.8-7.8H45V21.487ZM48.122,12.122h7.8A4.688,4.688,0,0,1,60.609,16.8v1.561H48.122Z" transform="translate(23.904 4.487)"/>
    <path id="Path_1345" data-name="Path 1345" d="M37,5h3.122V26.852H37Z" transform="translate(19.727 2.244)"/>
    <path id="Path_1346" data-name="Path 1346" d="M33,5h3.122V26.852H33Z" transform="translate(17.535 2.244)"/>
  </g>
</svg>
