<svg xmlns="http://www.w3.org/2000/svg" width="64" height="64" viewBox="0 0 64 64">
  <g id="wrench" transform="translate(0)">
    <g id="Group_408" data-name="Group 408" transform="translate(0 0)">
      <g id="Group_407" data-name="Group 407">
        <path id="Path_1333" data-name="Path 1333" d="M63.89,9.658A1.876,1.876,0,0,0,60.708,8.6l-2.651,2.653a3.841,3.841,0,0,1-5.3,0,3.746,3.746,0,0,1,0-5.3L55.4,3.295A1.876,1.876,0,0,0,54.341.113a11.25,11.25,0,0,0-12.457,14.05L14.162,41.884l0,0A11.254,11.254,0,0,0,.11,54.342,1.876,1.876,0,0,0,3.293,55.4l2.651-2.653a3.841,3.841,0,0,1,5.3,0,3.746,3.746,0,0,1,0,5.3L8.6,60.7a1.876,1.876,0,0,0,1.062,3.182,11.25,11.25,0,0,0,12.457-14.05L49.839,22.116l0,0A11.254,11.254,0,0,0,63.89,9.658Z" transform="translate(0 -0.002)"/>
      </g>
    </g>
    <g id="Group_410" data-name="Group 410" transform="translate(34.728 34.728)">
      <g id="Group_409" data-name="Group 409">
        <path id="Path_1334" data-name="Path 1334" d="M295.262,284.04a11.041,11.041,0,0,0-2.867.416l-7.248-7.247-7.936,7.935,7.247,7.248a11.064,11.064,0,0,0-.416,2.869,11.221,11.221,0,1,0,11.221-11.221Zm6.136,10.846-1.112,4.149a1.874,1.874,0,0,1-1.322,1.322l-4.149,1.112a1.868,1.868,0,0,1-1.806-.484l-3.037-3.037a1.868,1.868,0,0,1-.484-1.806l1.112-4.149a1.874,1.874,0,0,1,1.322-1.322l4.149-1.112a1.858,1.858,0,0,1,1.806.484l3.037,3.037A1.868,1.868,0,0,1,301.4,294.886Z" transform="translate(-277.211 -277.209)"/>
      </g>
    </g>
    <g id="Group_412" data-name="Group 412" transform="translate(0 0)">
      <g id="Group_411" data-name="Group 411">
        <path id="Path_1335" data-name="Path 1335" d="M22.055,14.018A11.265,11.265,0,0,0,19.15,3.178a11.494,11.494,0,0,0-15.869,0A11.222,11.222,0,0,0,14.122,21.952l7.216,7.319,7.935-7.934ZM17.165,10.55,16.052,14.7a1.874,1.874,0,0,1-1.322,1.322l-4.149,1.112a1.868,1.868,0,0,1-1.806-.484L5.738,13.613a1.868,1.868,0,0,1-.484-1.806L6.366,7.658A1.874,1.874,0,0,1,7.688,6.335l4.149-1.112a1.864,1.864,0,0,1,1.806.484l3.037,3.037A1.868,1.868,0,0,1,17.165,10.55Z" transform="translate(-0.001 0)"/>
      </g>
    </g>
  </g>
</svg>
