<svg id="hand" xmlns="http://www.w3.org/2000/svg" width="40" height="40" viewBox="0 0 40 40">
  <path id="Path_1321" data-name="Path 1321" d="M220.2,331.674a.867.867,0,1,0-1.226,0A.868.868,0,0,0,220.2,331.674Zm0,0" transform="translate(-201.746 -304.513)"/>
  <path id="Path_1322" data-name="Path 1322" d="M188.449,9.535A9.535,9.535,0,1,0,197.984,0,9.546,9.546,0,0,0,188.449,9.535Zm17.336,0a7.8,7.8,0,1,1-7.8-7.8A7.81,7.81,0,0,1,205.785,9.535Zm0,0" transform="translate(-174.972)"/>
  <path id="Path_1323" data-name="Path 1323" d="M9.5,238.046a.728.728,0,0,0,1.1.007l3.788-4.14a2.829,2.829,0,0,0,.556-2.69l.815-.872a2.215,2.215,0,0,1,1.627-.729H27.775a6.653,6.653,0,0,0,4.9-2.211c.054-.059-.412.551,7.086-9.391a3.74,3.74,0,0,0-.371-4.887,2.923,2.923,0,0,0-4.384.387l-4.61,5.257a3.034,3.034,0,0,0-2.429-1.29H19.258a9.225,9.225,0,0,0-3.912-.867,9.528,9.528,0,0,0-8.81,5.542,2.19,2.19,0,0,0-2.09.718L.729,227.017a.936.936,0,0,0,0,1.223Zm5.845-19.692a7.815,7.815,0,0,1,3.439.794.715.715,0,0,0,.313.073H27.97a1.743,1.743,0,0,1,0,3.467H21.6a.871.871,0,0,0,0,1.733H27.97a3.313,3.313,0,0,0,3.125-3.467,3.857,3.857,0,0,0-.027-.453c4.46-5.086,5.089-5.8,5.115-5.836a1.463,1.463,0,0,1,2.2-.207,1.871,1.871,0,0,1,.183,2.447L31.562,226.2a5.17,5.17,0,0,1-3.787,1.69H17.388a3.693,3.693,0,0,0-2.712,1.215l-.664.711-6.121-6.79a7.956,7.956,0,0,1,7.454-4.671Zm-9.794,5.752a.723.723,0,0,1,.967-.122c.135.091-.253-.3,6.767,7.477a.937.937,0,0,1,0,1.222l-3.229,3.529L2.384,227.63Zm0,0" transform="translate(-0.501 -198.302)"/>
  <path id="Path_1324" data-name="Path 1324" d="M267.576,40.855v1.016a2.6,2.6,0,0,0,.867,5.052.867.867,0,1,1,0,1.733A1.568,1.568,0,0,1,267.317,48a.867.867,0,0,0-1.327,1.116,3.6,3.6,0,0,0,1.586,1.129v1.012a.867.867,0,0,0,1.733,0V50.241a2.6,2.6,0,0,0-.867-5.052.867.867,0,0,1,0-1.734,1.392,1.392,0,0,1,.938.453.867.867,0,0,0,1.206-1.246,3.35,3.35,0,0,0-1.277-.8v-1.01a.867.867,0,1,0-1.733,0Zm0,0" transform="translate(-245.36 -36.521)"/>
</svg>
