<svg xmlns="http://www.w3.org/2000/svg" width="16" height="16" viewBox="0 0 16 16">
  <path id="menu_navigation_grid-_1529_" fill="#000f3b" data-name="menu_navigation_grid-[#1529]" d="M56.6,48.8H54.2a2.4,2.4,0,0,0-2.4,2.4v2.4A2.4,2.4,0,0,0,54.2,56h2.4A2.4,2.4,0,0,0,59,53.6V51.2a2.4,2.4,0,0,0-2.4-2.4m-8.8,0H45.4A2.4,2.4,0,0,0,43,51.2v2.4A2.4,2.4,0,0,0,45.4,56h2.4a2.4,2.4,0,0,0,2.4-2.4V51.2a2.4,2.4,0,0,0-2.4-2.4M56.6,40H54.2a2.4,2.4,0,0,0-2.4,2.4v2.4a2.4,2.4,0,0,0,2.4,2.4h2.4A2.4,2.4,0,0,0,59,44.8V42.4A2.4,2.4,0,0,0,56.6,40m-6.4,2.4v2.4a2.4,2.4,0,0,1-2.4,2.4H45.4A2.4,2.4,0,0,1,43,44.8V42.4A2.4,2.4,0,0,1,45.4,40h2.4a2.4,2.4,0,0,1,2.4,2.4" transform="translate(-43 -40)" fill-rule="evenodd"/>
</svg>
