<svg xmlns="http://www.w3.org/2000/svg" width="64" height="64" viewBox="0 0 64 64">
  <g id="safety-box" transform="translate(0 0)">
    <path id="Path_1337" data-name="Path 1337" d="M59.9,0H40.74a4.1,4.1,0,0,0-4.1,4.1V15.607h-21a3.771,3.771,0,0,0-2.93,1.386l-7.4-4.647a.951.951,0,0,0-.5-.144H.937A.937.937,0,0,0,0,13.14V63.013a.937.937,0,0,0,.937.938H4.819a.948.948,0,0,0,.549-.177l7.6-5.481A3.747,3.747,0,0,0,15.473,59.4v1.165A3.441,3.441,0,0,0,18.91,64h3.952A3.441,3.441,0,0,0,26.3,60.562V59.4H41.184v1.16A3.441,3.441,0,0,0,44.621,64h3.952a3.441,3.441,0,0,0,3.438-3.437V59.4a3.789,3.789,0,0,0,3.614-3.781V26.275H59.9a4.1,4.1,0,0,0,4.1-4.1V11.622a.938.938,0,0,0-1.875,0V22.179A2.223,2.223,0,0,1,59.9,24.4H48.717a.938.938,0,0,0-.663.275l-3.542,3.543v-2.88a.937.937,0,0,0-.938-.937H40.74a2.223,2.223,0,0,1-2.221-2.221V4.1A2.223,2.223,0,0,1,40.74,1.875H59.9A2.223,2.223,0,0,1,62.125,4.1V6.63A.938.938,0,0,0,64,6.63V4.1A4.1,4.1,0,0,0,59.9,0ZM15.643,17.482h21v2.445H17.384l-3.056-1.92a1.9,1.9,0,0,1,1.316-.525Zm-13.768-3.4H3.882v48H1.875Zm22.55,46.485a1.564,1.564,0,0,1-1.562,1.563H18.91a1.564,1.564,0,0,1-1.562-1.562V59.4h7.077Zm25.711,0a1.564,1.564,0,0,1-1.562,1.563H44.621a1.564,1.564,0,0,1-1.562-1.562V59.4h7.077Zm3.614-4.945a1.912,1.912,0,0,1-1.91,1.91h-36.2a1.894,1.894,0,0,1-1.115-.362l2.888-2.083H50.37a.937.937,0,0,0,.938-.937V26.275H53.75Zm-19.071-2.41V51.58h6.038v1.628Zm6.038-3.5H34.679V48.077h6.038Zm-7.913,3.5H26.767V51.58H32.8ZM40.74,26.275h1.9v4.205a.942.942,0,0,0,1.6.663L49.1,26.275h.327V53.207H42.592V47.14a.937.937,0,0,0-.937-.937H33.742a.937.937,0,0,0-.938.938V49.7H25.829a.937.937,0,0,0-.937.938v2.565H18.051v-5.25a.937.937,0,0,0-1.875,0v5.707L5.757,61.181V14.837l10.419,6.547V42.959a.937.937,0,0,0,1.875,0V21.8H36.644a4.184,4.184,0,0,0,4.1,4.472Z" transform="translate(0)" fill="#000f3b"/>
    <path id="Path_1338" data-name="Path 1338" d="M396.943,53.063a.933.933,0,0,0-1.865,0V60.53a.933.933,0,0,0,1.865,0Z" transform="translate(-345.686 -45.653)" fill="#000f3b"/>
    <path id="Path_1339" data-name="Path 1339" d="M396.234,144.049a.933.933,0,0,0,0,1.865A.933.933,0,0,0,396.234,144.049Z" transform="translate(-345.909 -126.04)" fill="#000f3b"/>
  </g>
</svg>
