<svg xmlns="http://www.w3.org/2000/svg" width="674" height="590.062" viewBox="0 0 674 590.062">
  <g id="Map_graphic" data-name="Map graphic" transform="translate(-1078.288 -236.508)">
    <path id="Path_1" data-name="Path 1" d="M1106.873,676.036l163.318,112.884s89.674,79.066,98.641,0,175.761-17.57,175.761-17.57,260.054,28.112-62.772-138.8S1349.1,437.514,1349.1,437.514s157.069,19.816,232.842-12.627,26.888-88.5,70.248-117.143c20.666-13.653,42.25-20.973,82.264-17.265" transform="translate(-1)" fill="none" stroke="#fff" stroke-width="5" stroke-dasharray="16 8"/>
    <g id="dest" transform="translate(1078.288 620.267)">
      <g id="Icon-Location">
        <path id="Fill-55" d="M-197.971-314.587l-1.009-1.233c-.672-.9-17.82-20.959-17.82-32.951A18.87,18.87,0,0,1-197.971-367.6a18.943,18.943,0,0,1,18.829,18.829c0,11.992-17.148,32.166-17.82,32.951l-1.009,1.233Zm0-50.435a16.143,16.143,0,0,0-16.139,16.139c0,9.415,12.441,25.442,16.139,30.037,3.7-4.6,16.139-20.51,16.139-30.037a16.143,16.143,0,0,0-16.139-16.139Z" transform="translate(216.8 367.6)" fill="#ffb700"/>
        <path id="Fill-56" d="M-199.227-342.854a7.223,7.223,0,0,1-7.173-7.173,7.223,7.223,0,0,1,7.173-7.173,7.223,7.223,0,0,1,7.173,7.173,7.223,7.223,0,0,1-7.173,7.173Zm0-11.656a4.5,4.5,0,0,0-4.483,4.483,4.5,4.5,0,0,0,4.483,4.483,4.5,4.5,0,0,0,4.483-4.483,4.5,4.5,0,0,0-4.483-4.483Z" transform="translate(218.056 368.856)" fill="#ffb700"/>
      </g>
    </g>
    <g id="dest-2" data-name="dest" transform="translate(1714.63 236.508)">
      <g id="Icon-Location-2" data-name="Icon-Location">
        <path id="Fill-55-2" data-name="Fill-55" d="M-197.971-314.587l-1.009-1.233c-.672-.9-17.82-20.959-17.82-32.951A18.87,18.87,0,0,1-197.971-367.6a18.943,18.943,0,0,1,18.829,18.829c0,11.992-17.148,32.166-17.82,32.951l-1.009,1.233Zm0-50.435a16.143,16.143,0,0,0-16.139,16.139c0,9.415,12.441,25.442,16.139,30.037,3.7-4.6,16.139-20.51,16.139-30.037a16.143,16.143,0,0,0-16.139-16.139Z" transform="translate(216.8 367.6)" fill="#ffb700"/>
        <path id="Fill-56-2" data-name="Fill-56" d="M-199.227-342.854a7.223,7.223,0,0,1-7.173-7.173,7.223,7.223,0,0,1,7.173-7.173,7.223,7.223,0,0,1,7.173,7.173,7.223,7.223,0,0,1-7.173,7.173Zm0-11.656a4.5,4.5,0,0,0-4.483,4.483,4.5,4.5,0,0,0,4.483,4.483,4.5,4.5,0,0,0,4.483-4.483,4.5,4.5,0,0,0-4.483-4.483Z" transform="translate(218.056 368.856)" fill="#ffb700"/>
      </g>
    </g>
    <g id="dest-3" data-name="dest" transform="translate(1338.288 381.975)">
      <g id="Icon-Location-3" data-name="Icon-Location">
        <path id="Fill-55-3" data-name="Fill-55" d="M-197.971-314.587l-1.009-1.233c-.672-.9-17.82-20.959-17.82-32.951A18.87,18.87,0,0,1-197.971-367.6a18.943,18.943,0,0,1,18.829,18.829c0,11.992-17.148,32.166-17.82,32.951l-1.009,1.233Zm0-50.435a16.143,16.143,0,0,0-16.139,16.139c0,9.415,12.441,25.442,16.139,30.037,3.7-4.6,16.139-20.51,16.139-30.037a16.143,16.143,0,0,0-16.139-16.139Z" transform="translate(216.8 367.6)" fill="#ffb700"/>
        <path id="Fill-56-3" data-name="Fill-56" d="M-199.227-342.854a7.223,7.223,0,0,1-7.173-7.173,7.223,7.223,0,0,1,7.173-7.173,7.223,7.223,0,0,1,7.173,7.173,7.223,7.223,0,0,1-7.173,7.173Zm0-11.656a4.5,4.5,0,0,0-4.483,4.483,4.5,4.5,0,0,0,4.483,4.483,4.5,4.5,0,0,0,4.483-4.483,4.5,4.5,0,0,0-4.483-4.483Z" transform="translate(218.056 368.856)" fill="#ffb700"/>
      </g>
    </g>
    <g id="dest-4" data-name="dest" transform="translate(1623.354 677.96)">
      <g id="Icon-Location-4" data-name="Icon-Location">
        <path id="Fill-55-4" data-name="Fill-55" d="M-197.971-314.587l-1.009-1.233c-.672-.9-17.82-20.959-17.82-32.951A18.87,18.87,0,0,1-197.971-367.6a18.943,18.943,0,0,1,18.829,18.829c0,11.992-17.148,32.166-17.82,32.951l-1.009,1.233Zm0-50.435a16.143,16.143,0,0,0-16.139,16.139c0,9.415,12.441,25.442,16.139,30.037,3.7-4.6,16.139-20.51,16.139-30.037a16.143,16.143,0,0,0-16.139-16.139Z" transform="translate(216.8 367.6)" fill="#ffb700"/>
        <path id="Fill-56-4" data-name="Fill-56" d="M-199.227-342.854a7.223,7.223,0,0,1-7.173-7.173,7.223,7.223,0,0,1,7.173-7.173,7.223,7.223,0,0,1,7.173,7.173,7.223,7.223,0,0,1-7.173,7.173Zm0-11.656a4.5,4.5,0,0,0-4.483,4.483,4.5,4.5,0,0,0,4.483,4.483,4.5,4.5,0,0,0,4.483-4.483,4.5,4.5,0,0,0-4.483-4.483Z" transform="translate(218.056 368.856)" fill="#ffb700"/>
      </g>
    </g>
    <g id="dest-5" data-name="dest" transform="translate(1381.18 693.955)">
      <g id="Icon-Location-5" data-name="Icon-Location">
        <path id="Fill-55-5" data-name="Fill-55" d="M-197.971-314.587l-1.009-1.233c-.672-.9-17.82-20.959-17.82-32.951A18.87,18.87,0,0,1-197.971-367.6a18.943,18.943,0,0,1,18.829,18.829c0,11.992-17.148,32.166-17.82,32.951l-1.009,1.233Zm0-50.435a16.143,16.143,0,0,0-16.139,16.139c0,9.415,12.441,25.442,16.139,30.037,3.7-4.6,16.139-20.51,16.139-30.037a16.143,16.143,0,0,0-16.139-16.139Z" transform="translate(216.8 367.6)" fill="#ffb700"/>
        <path id="Fill-56-5" data-name="Fill-56" d="M-199.227-342.854a7.223,7.223,0,0,1-7.173-7.173,7.223,7.223,0,0,1,7.173-7.173,7.223,7.223,0,0,1,7.173,7.173,7.223,7.223,0,0,1-7.173,7.173Zm0-11.656a4.5,4.5,0,0,0-4.483,4.483,4.5,4.5,0,0,0,4.483,4.483,4.5,4.5,0,0,0,4.483-4.483,4.5,4.5,0,0,0-4.483-4.483Z" transform="translate(218.056 368.856)" fill="#ffb700"/>
      </g>
    </g>
  </g>
</svg>
