<svg id="Group_448" data-name="Group 448" xmlns="http://www.w3.org/2000/svg" width="789.911" height="556.084" viewBox="0 0 789.911 556.084">
  <g id="Group_415" data-name="Group 415" transform="translate(0 168.872)">
    <path id="Path_1321" data-name="Path 1321" d="M14.25,207.9l120.257-59.7L788.673,475.709l-119.4,59.7Z" transform="translate(-14.25 -148.2)" opacity="0.3"/>
    <g id="Group_399" data-name="Group 399" transform="translate(512.586 216.634)">
      <path id="Path_1322" data-name="Path 1322" d="M450.991,329.175l-8.529,4.264v13.646l83.583,41.792,8.529-4.264V370.967Z" transform="translate(-442.463 -329.175)" fill="#ffb700"/>
      <path id="Path_1323" data-name="Path 1323" d="M442.463,332.738v13.646l83.583,41.792V374.529Z" transform="translate(-442.463 -328.473)" opacity="0.11"/>
      <path id="Path_1324" data-name="Path 1324" d="M520.816,364.088v13.646L512.287,382V368.352Z" transform="translate(-428.704 -322.296)" opacity="0.29"/>
    </g>
    <g id="Group_400" data-name="Group 400" transform="translate(585.935 252.455)">
      <path id="Path_1325" data-name="Path 1325" d="M534.442,359.1l-30.7,15.352v26.44l20.469,10.235,30.7-15.352v-26.44Z" transform="translate(-503.737 -359.1)" fill="#ffb700"/>
      <path id="Path_1326" data-name="Path 1326" d="M503.737,371.925v26.44L524.207,408.6V382.16Z" transform="translate(-503.737 -356.573)" opacity="0.11"/>
      <path id="Path_1327" data-name="Path 1327" d="M551.542,367.65v26.44l-30.7,15.352V383Z" transform="translate(-500.368 -357.415)" opacity="0.29"/>
    </g>
    <g id="Group_401" data-name="Group 401" transform="translate(463.119 209.811)">
      <path id="Path_1328" data-name="Path 1328" d="M404.549,323.475l-3.412,1.706v26.44L539.306,420.7,542.717,419v-26.44Z" transform="translate(-401.138 -323.475)" fill="#ffb700"/>
      <path id="Path_1329" data-name="Path 1329" d="M401.138,324.9v26.44l138.168,69.084v-26.44Z" transform="translate(-401.138 -323.194)" opacity="0.11"/>
      <path id="Path_1330" data-name="Path 1330" d="M519.974,381.188v26.44l-3.411,1.706v-26.44Z" transform="translate(-378.394 -312.103)" opacity="0.29"/>
    </g>
    <g id="Group_406" data-name="Group 406" transform="translate(405.122 205.546)">
      <path id="Path_1331" data-name="Path 1331" d="M362.922,335.265l30.7-15.352L383.392,336.97l-30.7,15.352Z" transform="translate(-352.688 -319.913)" fill="#2d3134"/>
      <path id="Path_1332" data-name="Path 1332" d="M362.922,335.265l30.7-15.352L383.392,336.97l-30.7,15.352Z" transform="translate(-352.688 -319.913)" opacity="0.29"/>
      <g id="Group_403" data-name="Group 403" transform="translate(20.811 6.234)">
        <g id="Group_402" data-name="Group 402">
          <path id="Path_1333" data-name="Path 1333" d="M405.894,327.927c-6.4-3.156-12.111-3.582-16.375-1.621h0l-11.94,5.97h0c-4.606,2.047-7.505,6.738-7.505,13.561,0,13.22,10.661,29.254,23.881,35.821,6.482,3.241,12.452,3.582,16.717,1.535,0,0,11.855-5.885,12.879-6.482,3.838-2.3,6.226-6.738,6.226-12.964C429.775,350.614,419.028,334.579,405.894,327.927Z" transform="translate(-370.073 -325.121)" fill="#2d3134"/>
          <path id="Path_1334" data-name="Path 1334" d="M404.2,379.389c1.706-.853,11.685-5.8,12.623-6.4,3.838-2.3,6.226-6.738,6.226-12.964,0-5.288-1.791-11.088-4.691-16.461l-11.94,5.97c2.9,5.458,4.691,11.173,4.691,16.461C411.11,372.651,408.466,377.257,404.2,379.389Z" transform="translate(-363.348 -321.486)" opacity="0.29"/>
          <path id="Path_1335" data-name="Path 1335" d="M407.8,362.735c0,8.444-6.823,11.855-15.267,7.591-8.444-4.179-15.267-14.5-15.267-22.857s6.823-11.855,15.267-7.591C400.894,344.057,407.8,354.291,407.8,362.735Z" transform="translate(-368.655 -322.572)" fill="#999"/>
          <path id="Path_1336" data-name="Path 1336" d="M393.815,369.739c-8.444-4.179-15.267-14.5-15.267-22.857,0-4.179,1.621-7.079,4.35-8.444-3.412,1.109-5.629,4.264-5.629,9.041,0,8.444,6.823,18.678,15.267,22.857,4.264,2.132,8.188,2.3,10.917.853C400.808,371.956,397.482,371.53,393.815,369.739Z" transform="translate(-368.655 -322.497)" opacity="0.15"/>
          <path id="Path_1337" data-name="Path 1337" d="M398.47,356.239c0,3.5-2.815,4.947-6.4,3.156-3.5-1.791-6.4-6.056-6.4-9.552s2.815-4.947,6.4-3.156C395.655,348.392,398.47,352.657,398.47,356.239Z" transform="translate(-366.998 -321.023)" fill="#2d3134"/>
          <path id="Path_1338" data-name="Path 1338" d="M398.47,356.239c0,3.5-2.815,4.947-6.4,3.156-3.5-1.791-6.4-6.056-6.4-9.552s2.815-4.947,6.4-3.156C395.655,348.392,398.47,352.657,398.47,356.239Z" transform="translate(-366.998 -321.023)" opacity="0.29"/>
          <path id="Path_1339" data-name="Path 1339" d="M397.4,356.738c0,3.5-2.815,4.947-6.4,3.156-3.5-1.791-6.4-6.056-6.4-9.552s2.814-4.947,6.4-3.156C394.586,348.891,397.4,353.156,397.4,356.738Z" transform="translate(-367.209 -320.925)" fill="#2d3134"/>
          <path id="Path_1340" data-name="Path 1340" d="M417.834,368.738c0,13.22-10.661,18.508-23.881,11.94s-23.881-22.6-23.881-35.821,10.661-18.508,23.881-11.94C407.088,339.569,417.834,355.6,417.834,368.738Z" transform="translate(-370.073 -324.14)" opacity="0.11"/>
        </g>
      </g>
      <g id="Group_405" data-name="Group 405" transform="translate(4.264 14.337)">
        <g id="Group_404" data-name="Group 404">
          <path id="Path_1341" data-name="Path 1341" d="M392.071,334.7c-6.4-3.156-12.111-3.582-16.375-1.62h0l-11.94,5.97h0c-4.606,2.047-7.505,6.738-7.505,13.561,0,13.22,10.661,29.254,23.881,35.821,6.482,3.241,12.452,3.582,16.717,1.535,0,0,11.855-5.885,12.879-6.482,3.838-2.3,6.226-6.738,6.226-12.964C415.952,357.3,405.291,341.263,392.071,334.7Z" transform="translate(-356.25 -331.889)" fill="#2d3134"/>
          <path id="Path_1342" data-name="Path 1342" d="M390.379,386.158c1.706-.853,11.685-5.8,12.623-6.4,3.838-2.3,6.226-6.738,6.226-12.964,0-5.288-1.791-11.088-4.691-16.461l-11.94,5.97c2.9,5.458,4.691,11.173,4.691,16.461C397.287,379.335,394.643,383.94,390.379,386.158Z" transform="translate(-349.525 -328.255)" opacity="0.29"/>
          <path id="Path_1343" data-name="Path 1343" d="M393.98,369.432c0,8.444-6.823,11.855-15.267,7.591-8.444-4.179-15.267-14.5-15.267-22.857s6.823-11.855,15.267-7.591S393.98,361.074,393.98,369.432Z" transform="translate(-354.832 -329.355)" fill="#999"/>
          <path id="Path_1344" data-name="Path 1344" d="M379.992,376.507c-8.444-4.179-15.267-14.5-15.267-22.857,0-4.179,1.621-7.079,4.35-8.444-3.412,1.109-5.629,4.264-5.629,9.041,0,8.444,6.823,18.678,15.267,22.857,4.264,2.132,8.188,2.3,10.917.853C386.986,378.725,383.66,378.3,379.992,376.507Z" transform="translate(-354.832 -329.265)" opacity="0.15"/>
          <path id="Path_1345" data-name="Path 1345" d="M384.647,362.937c0,3.5-2.815,4.947-6.4,3.156-3.5-1.791-6.4-6.056-6.4-9.552s2.815-4.947,6.4-3.156S384.647,359.44,384.647,362.937Z" transform="translate(-353.176 -327.806)" fill="#2d3134"/>
          <path id="Path_1346" data-name="Path 1346" d="M384.647,362.937c0,3.5-2.815,4.947-6.4,3.156-3.5-1.791-6.4-6.056-6.4-9.552s2.815-4.947,6.4-3.156S384.647,359.44,384.647,362.937Z" transform="translate(-353.176 -327.806)" opacity="0.29"/>
          <path id="Path_1347" data-name="Path 1347" d="M383.65,363.435c0,3.5-2.815,4.947-6.4,3.156s-6.4-6.056-6.4-9.552,2.815-4.947,6.4-3.156S383.65,359.938,383.65,363.435Z" transform="translate(-353.372 -327.707)" fill="#2d3134"/>
          <path id="Path_1348" data-name="Path 1348" d="M404.012,375.506c0,13.22-10.661,18.508-23.881,11.94s-23.881-22.6-23.881-35.821,10.661-18.508,23.881-11.94S404.012,362.287,404.012,375.506Z" transform="translate(-356.25 -330.909)" opacity="0.11"/>
        </g>
      </g>
      <path id="Path_1349" data-name="Path 1349" d="M361.238,335.265l30.7-15.352,30.7,15.352-30.7,15.352Z" transform="translate(-351.003 -319.913)" fill="#2d3134"/>
      <path id="Path_1350" data-name="Path 1350" d="M398.828,369.412l30.7-15.352-11.94-21.322-30.7,15.352Z" transform="translate(-345.949 -317.385)" fill="#2d3134"/>
      <path id="Path_1351" data-name="Path 1351" d="M398.828,369.412l30.7-15.352-11.94-21.322-30.7,15.352Z" transform="translate(-345.949 -317.385)" opacity="0.29"/>
    </g>
    <g id="Group_411" data-name="Group 411" transform="translate(454.59 230.28)">
      <path id="Path_1352" data-name="Path 1352" d="M404.247,355.927l30.7-15.352-10.235,17.058-30.7,15.352Z" transform="translate(-394.012 -340.575)" fill="#2d3134"/>
      <path id="Path_1353" data-name="Path 1353" d="M404.247,355.927l30.7-15.352-10.235,17.058-30.7,15.352Z" transform="translate(-394.012 -340.575)" opacity="0.29"/>
      <g id="Group_408" data-name="Group 408" transform="translate(20.811 6.234)">
        <g id="Group_407" data-name="Group 407">
          <path id="Path_1354" data-name="Path 1354" d="M447.219,348.589c-6.4-3.156-12.111-3.582-16.375-1.621h0l-11.94,5.97h0c-4.606,2.047-7.505,6.738-7.505,13.561,0,13.22,10.661,29.254,23.881,35.821,6.482,3.241,12.452,3.582,16.717,1.535,0,0,11.855-5.885,12.879-6.482,3.838-2.3,6.226-6.738,6.226-12.964C471.1,371.276,460.353,355.242,447.219,348.589Z" transform="translate(-411.398 -345.783)" fill="#2d3134"/>
          <path id="Path_1355" data-name="Path 1355" d="M445.526,400.051c1.706-.853,11.685-5.8,12.623-6.4,3.838-2.3,6.226-6.738,6.226-12.964,0-5.288-1.791-11.088-4.691-16.461l-11.94,5.97c2.9,5.458,4.691,11.173,4.691,16.461C452.435,393.313,449.791,397.919,445.526,400.051Z" transform="translate(-404.673 -342.148)" opacity="0.29"/>
          <path id="Path_1356" data-name="Path 1356" d="M449.127,383.4c0,8.444-6.823,11.855-15.267,7.591-8.444-4.179-15.267-14.5-15.267-22.857,0-8.444,6.823-11.855,15.267-7.591C442.219,364.722,449.127,374.956,449.127,383.4Z" transform="translate(-409.98 -343.237)" fill="#999"/>
          <path id="Path_1357" data-name="Path 1357" d="M435.14,390.4c-8.444-4.179-15.267-14.5-15.267-22.857,0-4.179,1.621-7.079,4.35-8.444-3.412,1.109-5.629,4.264-5.629,9.041,0,8.444,6.823,18.678,15.267,22.857,4.264,2.132,8.188,2.3,10.917.853C442.134,392.619,438.807,392.192,435.14,390.4Z" transform="translate(-409.98 -343.159)" opacity="0.15"/>
          <path id="Path_1358" data-name="Path 1358" d="M439.795,376.9c0,3.5-2.815,4.947-6.4,3.156S427,374,427,370.5s2.815-4.947,6.4-3.156C436.98,369.055,439.795,373.319,439.795,376.9Z" transform="translate(-408.323 -341.685)" fill="#2d3134"/>
          <path id="Path_1359" data-name="Path 1359" d="M439.795,376.9c0,3.5-2.815,4.947-6.4,3.156S427,374,427,370.5s2.815-4.947,6.4-3.156C436.98,369.055,439.795,373.319,439.795,376.9Z" transform="translate(-408.323 -341.685)" opacity="0.29"/>
          <path id="Path_1360" data-name="Path 1360" d="M438.726,377.4c0,3.5-2.815,4.947-6.4,3.156s-6.4-6.056-6.4-9.552,2.815-4.947,6.4-3.156C435.911,369.554,438.726,373.818,438.726,377.4Z" transform="translate(-408.534 -341.587)" fill="#2d3134"/>
          <path id="Path_1361" data-name="Path 1361" d="M459.159,389.4c0,13.22-10.661,18.508-23.881,11.94s-23.881-22.6-23.881-35.821,10.661-18.508,23.881-11.94C448.413,360.231,459.159,376.266,459.159,389.4Z" transform="translate(-411.398 -344.802)" opacity="0.11"/>
        </g>
      </g>
      <g id="Group_410" data-name="Group 410" transform="translate(4.264 14.337)">
        <g id="Group_409" data-name="Group 409">
          <path id="Path_1362" data-name="Path 1362" d="M433.4,355.358c-6.4-3.156-12.111-3.582-16.375-1.62h0l-11.94,5.97h0c-4.606,2.047-7.505,6.738-7.505,13.561,0,13.22,10.661,29.254,23.881,35.821,6.482,3.241,12.452,3.582,16.717,1.535,0,0,11.855-5.885,12.879-6.482,3.838-2.3,6.226-6.738,6.226-12.964C457.277,377.96,446.616,361.925,433.4,355.358Z" transform="translate(-397.575 -352.552)" fill="#2d3134"/>
          <path id="Path_1363" data-name="Path 1363" d="M431.7,406.82c1.706-.853,11.685-5.8,12.623-6.4,3.838-2.3,6.226-6.738,6.226-12.964,0-5.288-1.791-11.088-4.691-16.461l-11.94,5.97c2.9,5.459,4.691,11.173,4.691,16.461C438.612,400,435.968,404.6,431.7,406.82Z" transform="translate(-390.85 -348.917)" opacity="0.29"/>
          <path id="Path_1364" data-name="Path 1364" d="M435.3,390.1c0,8.444-6.823,11.855-15.267,7.591-8.444-4.179-15.267-14.5-15.267-22.857,0-8.444,6.823-11.855,15.267-7.591S435.3,381.739,435.3,390.1Z" transform="translate(-396.157 -350.02)" fill="#999"/>
          <path id="Path_1365" data-name="Path 1365" d="M421.317,397.17c-8.444-4.179-15.267-14.5-15.267-22.857,0-4.179,1.62-7.079,4.35-8.444-3.412,1.109-5.629,4.264-5.629,9.041,0,8.444,6.823,18.678,15.267,22.857,4.264,2.132,8.188,2.3,10.917.853C428.311,399.387,424.985,398.961,421.317,397.17Z" transform="translate(-396.157 -349.928)" opacity="0.15"/>
          <path id="Path_1366" data-name="Path 1366" d="M425.972,383.6c0,3.5-2.815,4.947-6.4,3.156-3.5-1.791-6.4-6.055-6.4-9.552s2.815-4.947,6.4-3.156S425.972,380.1,425.972,383.6Z" transform="translate(-394.5 -348.468)" fill="#2d3134"/>
          <path id="Path_1367" data-name="Path 1367" d="M425.972,383.6c0,3.5-2.815,4.947-6.4,3.156-3.5-1.791-6.4-6.055-6.4-9.552s2.815-4.947,6.4-3.156S425.972,380.1,425.972,383.6Z" transform="translate(-394.5 -348.468)" opacity="0.29"/>
          <path id="Path_1368" data-name="Path 1368" d="M424.975,384.1c0,3.5-2.815,4.947-6.4,3.156-3.5-1.791-6.4-6.056-6.4-9.552s2.815-4.947,6.4-3.156C422.075,376.336,424.975,380.6,424.975,384.1Z" transform="translate(-394.697 -348.37)" fill="#2d3134"/>
          <path id="Path_1369" data-name="Path 1369" d="M445.337,396.169c0,13.22-10.661,18.508-23.881,11.94s-23.881-22.6-23.881-35.821,10.661-18.508,23.881-11.94S445.337,382.949,445.337,396.169Z" transform="translate(-397.575 -351.571)" opacity="0.11"/>
        </g>
      </g>
      <path id="Path_1370" data-name="Path 1370" d="M402.563,355.927l30.7-15.352,30.7,15.352-30.7,15.352Z" transform="translate(-392.328 -340.575)" fill="#2d3134"/>
      <path id="Path_1371" data-name="Path 1371" d="M440.153,390.074l30.7-15.352L458.917,353.4l-30.7,15.352Z" transform="translate(-387.274 -338.048)" fill="#2d3134"/>
      <path id="Path_1372" data-name="Path 1372" d="M440.153,390.074l30.7-15.352L458.917,353.4l-30.7,15.352Z" transform="translate(-387.274 -338.048)" opacity="0.29"/>
    </g>
    <g id="Group_412" data-name="Group 412" transform="translate(529.644 260.984)">
      <path id="Path_1373" data-name="Path 1373" d="M473.77,366.225l-17.058,8.529v23.028l44.35,22.175,17.058-8.529V388.4Z" transform="translate(-456.713 -366.225)" fill="#999"/>
      <path id="Path_1374" data-name="Path 1374" d="M484.307,371.493l-3.411-1.706-17.058,8.529v23.028l3.412,1.706V380.022Z" transform="translate(-455.309 -365.523)" fill="#2d3134"/>
      <path id="Path_1375" data-name="Path 1375" d="M504.257,381.468l-3.412-1.706-17.058,8.529v23.028l3.412,1.706V390Z" transform="translate(-451.378 -363.558)" fill="#2d3134"/>
      <path id="Path_1376" data-name="Path 1376" d="M510.82,384.75v23.028l-17.058,8.529V393.279Z" transform="translate(-449.412 -362.575)" opacity="0.29"/>
      <path id="Path_1377" data-name="Path 1377" d="M456.713,373.35v23.028l44.35,22.175V395.525Z" transform="translate(-456.713 -364.821)" opacity="0.11"/>
    </g>
    <g id="Group_413" data-name="Group 413" transform="translate(508.322 270.366)">
      <path id="Path_1378" data-name="Path 1378" d="M447.429,374.063l-8.529,4.264v26.44l52.879,26.44,8.529-4.264V400.5Z" transform="translate(-438.9 -374.063)" fill="#ffb700"/>
      <path id="Path_1379" data-name="Path 1379" d="M438.9,377.625v26.44l52.879,26.44v-26.44Z" transform="translate(-438.9 -373.361)" opacity="0.11"/>
      <path id="Path_1380" data-name="Path 1380" d="M491.6,396.15v26.44l-8.529,4.264v-26.44Z" transform="translate(-430.196 -369.71)" opacity="0.29"/>
    </g>
    <g id="Group_414" data-name="Group 414" transform="translate(561.201 241.368)">
      <path id="Path_1381" data-name="Path 1381" d="M602.479,349.837l-119.4,59.7v26.44l20.469,10.235,119.4-59.7v-26.44Z" transform="translate(-483.075 -349.837)" fill="#ffb700"/>
      <path id="Path_1382" data-name="Path 1382" d="M483.075,399.713v26.44l20.469,10.235v-26.44Z" transform="translate(-483.075 -340.01)" opacity="0.11"/>
      <path id="Path_1383" data-name="Path 1383" d="M619.58,358.388v26.44l-119.4,59.7V418.09Z" transform="translate(-479.706 -348.153)" opacity="0.29"/>
    </g>
  </g>
  <g id="Group_435" data-name="Group 435" transform="translate(0 119.404)">
    <g id="Group_420" data-name="Group 420" transform="translate(52.879 77.613)">
      <path id="Path_1384" data-name="Path 1384" d="M68.66,187.065l30.7-15.352L89.129,188.77l-30.7,15.352Z" transform="translate(-58.425 -171.713)" fill="#2d3134"/>
      <path id="Path_1385" data-name="Path 1385" d="M68.66,187.065l30.7-15.352L89.129,188.77l-30.7,15.352Z" transform="translate(-58.425 -171.713)" opacity="0.29"/>
      <g id="Group_417" data-name="Group 417" transform="translate(20.81 6.234)">
        <g id="Group_416" data-name="Group 416">
          <path id="Path_1386" data-name="Path 1386" d="M111.631,179.727c-6.4-3.156-12.111-3.582-16.375-1.62h0l-11.94,5.97h0c-4.606,2.047-7.505,6.738-7.505,13.561,0,13.22,10.661,29.254,23.881,35.821,6.482,3.241,12.452,3.582,16.717,1.535,0,0,11.855-5.885,12.879-6.482,3.838-2.3,6.226-6.738,6.226-12.964C135.512,202.414,124.766,186.379,111.631,179.727Z" transform="translate(-75.81 -176.921)" fill="#2d3134"/>
          <path id="Path_1387" data-name="Path 1387" d="M109.939,231.189c1.706-.853,11.685-5.8,12.623-6.4,3.838-2.3,6.226-6.738,6.226-12.964,0-5.288-1.791-11.088-4.691-16.461l-11.94,5.97c2.9,5.458,4.691,11.173,4.691,16.461C116.847,224.451,114.2,229.057,109.939,231.189Z" transform="translate(-69.085 -173.286)" opacity="0.29"/>
          <path id="Path_1388" data-name="Path 1388" d="M113.54,214.535c0,8.444-6.823,11.855-15.267,7.591-8.444-4.179-15.267-14.5-15.267-22.857s6.823-11.855,15.267-7.591C106.631,195.857,113.54,206.091,113.54,214.535Z" transform="translate(-74.392 -174.372)" fill="#999"/>
          <path id="Path_1389" data-name="Path 1389" d="M99.552,221.539c-8.444-4.179-15.267-14.5-15.267-22.857,0-4.179,1.62-7.079,4.35-8.444-3.412,1.109-5.629,4.264-5.629,9.041,0,8.444,6.823,18.678,15.267,22.857,4.264,2.132,8.188,2.3,10.917.853C106.546,223.756,103.22,223.33,99.552,221.539Z" transform="translate(-74.392 -174.297)" opacity="0.15"/>
          <path id="Path_1390" data-name="Path 1390" d="M104.207,208.039c0,3.5-2.815,4.947-6.4,3.156-3.5-1.791-6.4-6.056-6.4-9.552s2.815-4.947,6.4-3.156C101.393,200.192,104.207,204.457,104.207,208.039Z" transform="translate(-72.735 -172.823)" fill="#2d3134"/>
          <path id="Path_1391" data-name="Path 1391" d="M104.207,208.039c0,3.5-2.815,4.947-6.4,3.156-3.5-1.791-6.4-6.056-6.4-9.552s2.815-4.947,6.4-3.156C101.393,200.192,104.207,204.457,104.207,208.039Z" transform="translate(-72.735 -172.823)" opacity="0.29"/>
          <path id="Path_1392" data-name="Path 1392" d="M103.138,208.538c0,3.5-2.815,4.947-6.4,3.156-3.5-1.791-6.4-6.056-6.4-9.552s2.815-4.947,6.4-3.156C100.324,200.691,103.138,204.956,103.138,208.538Z" transform="translate(-72.946 -172.725)" fill="#2d3134"/>
          <path id="Path_1393" data-name="Path 1393" d="M123.572,220.538c0,13.22-10.661,18.508-23.881,11.94s-23.881-22.6-23.881-35.821,10.661-18.508,23.881-11.94C112.825,191.369,123.572,207.4,123.572,220.538Z" transform="translate(-75.81 -175.94)" opacity="0.11"/>
        </g>
      </g>
      <g id="Group_419" data-name="Group 419" transform="translate(4.264 14.337)">
        <g id="Group_418" data-name="Group 418">
          <path id="Path_1394" data-name="Path 1394" d="M97.809,186.5c-6.4-3.156-12.111-3.582-16.375-1.62h0l-11.94,5.97h0c-4.606,2.047-7.505,6.738-7.505,13.561,0,13.22,10.661,29.254,23.881,35.821,6.482,3.241,12.452,3.582,16.717,1.535,0,0,11.855-5.885,12.879-6.482,3.838-2.3,6.226-6.738,6.226-12.964C121.69,209.1,111.029,193.063,97.809,186.5Z" transform="translate(-61.987 -183.689)" fill="#2d3134"/>
          <path id="Path_1395" data-name="Path 1395" d="M96.116,237.958c1.706-.853,11.685-5.8,12.623-6.4,3.838-2.3,6.226-6.738,6.226-12.964,0-5.288-1.791-11.088-4.691-16.461l-11.94,5.97c2.9,5.458,4.691,11.173,4.691,16.461C103.025,231.134,100.381,235.74,96.116,237.958Z" transform="translate(-55.263 -180.055)" opacity="0.29"/>
          <path id="Path_1396" data-name="Path 1396" d="M99.717,221.232c0,8.444-6.823,11.855-15.267,7.591-8.444-4.179-15.267-14.5-15.267-22.857s6.823-11.855,15.267-7.591S99.717,212.874,99.717,221.232Z" transform="translate(-60.57 -181.155)" fill="#999"/>
          <path id="Path_1397" data-name="Path 1397" d="M85.73,228.307c-8.444-4.179-15.267-14.5-15.267-22.857,0-4.179,1.62-7.079,4.35-8.444-3.412,1.109-5.629,4.264-5.629,9.041,0,8.444,6.823,18.678,15.267,22.857,4.264,2.132,8.188,2.3,10.917.853C92.723,230.525,89.4,230.1,85.73,228.307Z" transform="translate(-60.57 -181.065)" opacity="0.15"/>
          <path id="Path_1398" data-name="Path 1398" d="M90.385,214.737c0,3.5-2.815,4.947-6.4,3.156-3.5-1.791-6.4-6.056-6.4-9.552s2.815-4.947,6.4-3.156S90.385,211.24,90.385,214.737Z" transform="translate(-58.913 -179.606)" fill="#2d3134"/>
          <path id="Path_1399" data-name="Path 1399" d="M90.385,214.737c0,3.5-2.815,4.947-6.4,3.156-3.5-1.791-6.4-6.056-6.4-9.552s2.815-4.947,6.4-3.156S90.385,211.24,90.385,214.737Z" transform="translate(-58.913 -179.606)" opacity="0.29"/>
          <path id="Path_1400" data-name="Path 1400" d="M89.387,215.235c0,3.5-2.815,4.947-6.4,3.156-3.5-1.791-6.4-6.056-6.4-9.552s2.815-4.947,6.4-3.156C86.487,207.474,89.387,211.738,89.387,215.235Z" transform="translate(-59.11 -179.507)" fill="#2d3134"/>
          <path id="Path_1401" data-name="Path 1401" d="M109.749,227.306c0,13.22-10.661,18.508-23.881,11.94s-23.881-22.6-23.881-35.821,10.661-18.508,23.881-11.94S109.749,214.087,109.749,227.306Z" transform="translate(-61.987 -182.709)" opacity="0.11"/>
        </g>
      </g>
      <path id="Path_1402" data-name="Path 1402" d="M66.975,187.065l30.7-15.352,30.7,15.352-30.7,15.352Z" transform="translate(-56.74 -171.713)" fill="#2d3134"/>
      <path id="Path_1403" data-name="Path 1403" d="M104.565,221.212l30.7-15.352-11.94-21.322-30.7,15.352Z" transform="translate(-51.686 -169.186)" fill="#2d3134"/>
      <path id="Path_1404" data-name="Path 1404" d="M104.565,221.212l30.7-15.352-11.94-21.322-30.7,15.352Z" transform="translate(-51.686 -169.186)" opacity="0.29"/>
    </g>
    <g id="Group_425" data-name="Group 425" transform="translate(103.2 103.541)">
      <path id="Path_1405" data-name="Path 1405" d="M110.7,208.725l30.7-15.352L131.167,210.43l-30.7,15.352Z" transform="translate(-100.462 -193.372)" fill="#2d3134"/>
      <path id="Path_1406" data-name="Path 1406" d="M110.7,208.725l30.7-15.352L131.167,210.43l-30.7,15.352Z" transform="translate(-100.462 -193.372)" opacity="0.29"/>
      <g id="Group_422" data-name="Group 422" transform="translate(20.81 6.234)">
        <g id="Group_421" data-name="Group 421">
          <path id="Path_1407" data-name="Path 1407" d="M153.669,201.387c-6.4-3.156-12.111-3.582-16.375-1.62h0l-11.94,5.97h0c-4.606,2.047-7.505,6.738-7.505,13.561,0,13.22,10.661,29.254,23.881,35.821,6.482,3.241,12.452,3.582,16.717,1.535,0,0,11.855-5.885,12.879-6.482,3.838-2.3,6.226-6.738,6.226-12.964C177.55,224.074,166.8,208.039,153.669,201.387Z" transform="translate(-117.847 -198.581)" fill="#2d3134"/>
          <path id="Path_1408" data-name="Path 1408" d="M151.976,252.849c1.706-.853,11.685-5.8,12.623-6.4,3.838-2.3,6.226-6.738,6.226-12.964,0-5.288-1.791-11.088-4.691-16.461L154.194,223c2.9,5.458,4.691,11.173,4.691,16.461C158.885,246.111,156.241,250.717,151.976,252.849Z" transform="translate(-111.123 -194.946)" opacity="0.29"/>
          <path id="Path_1409" data-name="Path 1409" d="M155.577,236.195c0,8.444-6.823,11.855-15.267,7.591-8.444-4.179-15.267-14.5-15.267-22.857s6.823-11.855,15.267-7.591C148.669,217.517,155.577,227.751,155.577,236.195Z" transform="translate(-116.43 -196.032)" fill="#999"/>
          <path id="Path_1410" data-name="Path 1410" d="M141.59,243.2c-8.444-4.179-15.267-14.5-15.267-22.857,0-4.179,1.62-7.079,4.35-8.444-3.412,1.109-5.629,4.264-5.629,9.041,0,8.444,6.823,18.678,15.267,22.857,4.264,2.132,8.188,2.3,10.917.853C148.584,245.416,145.257,244.99,141.59,243.2Z" transform="translate(-116.43 -195.957)" opacity="0.15"/>
          <path id="Path_1411" data-name="Path 1411" d="M146.245,229.7c0,3.5-2.815,4.947-6.4,3.156-3.5-1.791-6.4-6.056-6.4-9.552s2.815-4.947,6.4-3.156C143.43,221.852,146.245,226.117,146.245,229.7Z" transform="translate(-114.773 -194.483)" fill="#2d3134"/>
          <path id="Path_1412" data-name="Path 1412" d="M146.245,229.7c0,3.5-2.815,4.947-6.4,3.156-3.5-1.791-6.4-6.056-6.4-9.552s2.815-4.947,6.4-3.156C143.43,221.852,146.245,226.117,146.245,229.7Z" transform="translate(-114.773 -194.483)" opacity="0.29"/>
          <path id="Path_1413" data-name="Path 1413" d="M145.176,230.2c0,3.5-2.815,4.947-6.4,3.156s-6.4-6.056-6.4-9.552,2.815-4.947,6.4-3.156C142.361,222.351,145.176,226.616,145.176,230.2Z" transform="translate(-114.984 -194.385)" fill="#2d3134"/>
          <path id="Path_1414" data-name="Path 1414" d="M165.609,242.2c0,13.22-10.661,18.508-23.881,11.94s-23.881-22.6-23.881-35.821,10.661-18.508,23.881-11.94C154.863,213.029,165.609,229.063,165.609,242.2Z" transform="translate(-117.847 -197.6)" opacity="0.11"/>
        </g>
      </g>
      <g id="Group_424" data-name="Group 424" transform="translate(4.264 14.337)">
        <g id="Group_423" data-name="Group 423">
          <path id="Path_1415" data-name="Path 1415" d="M139.846,208.156c-6.4-3.156-12.111-3.582-16.375-1.62h0l-11.94,5.97h0c-4.606,2.047-7.505,6.738-7.505,13.561,0,13.22,10.661,29.254,23.881,35.821,6.482,3.241,12.452,3.582,16.717,1.535,0,0,11.855-5.885,12.879-6.482,3.838-2.3,6.226-6.738,6.226-12.964C163.727,230.757,153.066,214.723,139.846,208.156Z" transform="translate(-104.025 -205.349)" fill="#2d3134"/>
          <path id="Path_1416" data-name="Path 1416" d="M138.154,259.618c1.706-.853,11.685-5.8,12.623-6.4,3.838-2.3,6.226-6.738,6.226-12.964,0-5.288-1.791-11.088-4.691-16.461l-11.94,5.97c2.9,5.458,4.691,11.173,4.691,16.461C145.062,252.794,142.418,257.4,138.154,259.618Z" transform="translate(-97.3 -201.715)" opacity="0.29"/>
          <path id="Path_1417" data-name="Path 1417" d="M141.755,242.966c0,8.444-6.823,11.855-15.267,7.591s-15.267-14.5-15.267-22.857c0-8.444,6.823-11.855,15.267-7.591C134.932,224.288,141.755,234.523,141.755,242.966Z" transform="translate(-102.607 -202.803)" fill="#999"/>
          <path id="Path_1418" data-name="Path 1418" d="M127.767,249.967c-8.444-4.179-15.267-14.5-15.267-22.857,0-4.179,1.62-7.079,4.35-8.444-3.412,1.109-5.629,4.264-5.629,9.041,0,8.444,6.823,18.678,15.267,22.857,4.264,2.132,8.188,2.3,10.917.853C134.761,252.185,131.435,251.758,127.767,249.967Z" transform="translate(-102.607 -202.725)" opacity="0.15"/>
          <path id="Path_1419" data-name="Path 1419" d="M132.422,236.4c0,3.5-2.815,4.947-6.4,3.156-3.5-1.791-6.4-6.056-6.4-9.552s2.815-4.947,6.4-3.156S132.422,232.9,132.422,236.4Z" transform="translate(-100.95 -201.266)" fill="#2d3134"/>
          <path id="Path_1420" data-name="Path 1420" d="M132.422,236.4c0,3.5-2.815,4.947-6.4,3.156-3.5-1.791-6.4-6.056-6.4-9.552s2.815-4.947,6.4-3.156S132.422,232.9,132.422,236.4Z" transform="translate(-100.95 -201.266)" opacity="0.29"/>
          <path id="Path_1421" data-name="Path 1421" d="M131.425,236.9c0,3.5-2.815,4.947-6.4,3.156-3.5-1.791-6.4-6.056-6.4-9.552s2.815-4.947,6.4-3.156C128.525,229.134,131.425,233.4,131.425,236.9Z" transform="translate(-101.147 -201.167)" fill="#2d3134"/>
          <path id="Path_1422" data-name="Path 1422" d="M151.787,248.966c0,13.22-10.661,18.508-23.881,11.94s-23.881-22.6-23.881-35.821,10.661-18.508,23.881-11.94S151.787,235.747,151.787,248.966Z" transform="translate(-104.025 -204.369)" opacity="0.11"/>
        </g>
      </g>
      <path id="Path_1423" data-name="Path 1423" d="M109.012,208.725l30.7-15.352,30.7,15.352-30.7,15.352Z" transform="translate(-98.778 -193.372)" fill="#2d3134"/>
      <path id="Path_1424" data-name="Path 1424" d="M146.6,242.872l30.7-15.352L165.367,206.2l-30.7,15.352Z" transform="translate(-93.724 -190.845)" fill="#2d3134"/>
      <path id="Path_1425" data-name="Path 1425" d="M146.6,242.872l30.7-15.352L165.367,206.2l-30.7,15.352Z" transform="translate(-93.724 -190.845)" opacity="0.29"/>
    </g>
    <g id="Group_430" data-name="Group 430" transform="translate(153.52 128.786)">
      <path id="Path_1426" data-name="Path 1426" d="M152.735,229.814l30.7-15.352L173.2,231.52l-30.7,15.352Z" transform="translate(-142.5 -214.463)" fill="#2d3134"/>
      <path id="Path_1427" data-name="Path 1427" d="M152.735,229.814l30.7-15.352L173.2,231.52l-30.7,15.352Z" transform="translate(-142.5 -214.463)" opacity="0.29"/>
      <g id="Group_427" data-name="Group 427" transform="translate(20.81 6.234)">
        <g id="Group_426" data-name="Group 426">
          <path id="Path_1428" data-name="Path 1428" d="M195.706,222.477c-6.4-3.156-12.111-3.582-16.375-1.62h0l-11.94,5.97h0c-4.606,2.047-7.505,6.738-7.505,13.561,0,13.22,10.661,29.254,23.881,35.821,6.482,3.241,12.452,3.582,16.717,1.535,0,0,11.855-5.885,12.879-6.482,3.838-2.3,6.226-6.738,6.226-12.964C219.587,245.164,208.841,229.129,195.706,222.477Z" transform="translate(-159.885 -219.671)" fill="#2d3134"/>
          <path id="Path_1429" data-name="Path 1429" d="M194.014,273.939c1.706-.853,11.685-5.8,12.623-6.4,3.838-2.3,6.226-6.738,6.226-12.964,0-5.288-1.791-11.088-4.691-16.461l-11.94,5.97c2.9,5.458,4.691,11.173,4.691,16.461C200.922,267.2,198.278,271.807,194.014,273.939Z" transform="translate(-153.16 -216.036)" opacity="0.29"/>
          <path id="Path_1430" data-name="Path 1430" d="M197.615,257.285c0,8.444-6.823,11.855-15.267,7.591-8.444-4.179-15.267-14.5-15.267-22.857s6.823-11.855,15.267-7.591C190.706,238.607,197.615,248.841,197.615,257.285Z" transform="translate(-158.467 -217.122)" fill="#999"/>
          <path id="Path_1431" data-name="Path 1431" d="M183.627,264.289c-8.444-4.179-15.267-14.5-15.267-22.857,0-4.179,1.62-7.079,4.35-8.444-3.412,1.109-5.629,4.264-5.629,9.041,0,8.444,6.823,18.678,15.267,22.857,4.264,2.132,8.188,2.3,10.917.853C190.621,266.506,187.295,266.08,183.627,264.289Z" transform="translate(-158.467 -217.047)" opacity="0.15"/>
          <path id="Path_1432" data-name="Path 1432" d="M188.282,250.789c0,3.5-2.815,4.947-6.4,3.156-3.5-1.791-6.4-6.056-6.4-9.552s2.815-4.947,6.4-3.156C185.468,242.942,188.282,247.207,188.282,250.789Z" transform="translate(-156.81 -215.573)" fill="#2d3134"/>
          <path id="Path_1433" data-name="Path 1433" d="M188.282,250.789c0,3.5-2.815,4.947-6.4,3.156-3.5-1.791-6.4-6.056-6.4-9.552s2.815-4.947,6.4-3.156C185.468,242.942,188.282,247.207,188.282,250.789Z" transform="translate(-156.81 -215.573)" opacity="0.29"/>
          <path id="Path_1434" data-name="Path 1434" d="M187.213,251.288c0,3.5-2.815,4.947-6.4,3.156-3.5-1.791-6.4-6.056-6.4-9.552s2.815-4.947,6.4-3.156C184.4,243.441,187.213,247.706,187.213,251.288Z" transform="translate(-157.021 -215.475)" fill="#2d3134"/>
          <path id="Path_1435" data-name="Path 1435" d="M207.647,263.288c0,13.22-10.661,18.508-23.881,11.94s-23.881-22.6-23.881-35.821,10.661-18.508,23.881-11.94C196.9,234.119,207.647,250.153,207.647,263.288Z" transform="translate(-159.885 -218.69)" opacity="0.11"/>
        </g>
      </g>
      <g id="Group_429" data-name="Group 429" transform="translate(4.264 14.337)">
        <g id="Group_428" data-name="Group 428">
          <path id="Path_1436" data-name="Path 1436" d="M181.884,229.246c-6.4-3.156-12.111-3.582-16.375-1.62h0l-11.94,5.97h0c-4.606,2.047-7.505,6.738-7.505,13.561,0,13.22,10.661,29.254,23.881,35.821,6.482,3.241,12.452,3.582,16.717,1.535,0,0,11.855-5.885,12.879-6.482,3.838-2.3,6.226-6.738,6.226-12.964C205.765,251.847,195.1,235.813,181.884,229.246Z" transform="translate(-146.063 -226.439)" fill="#2d3134"/>
          <path id="Path_1437" data-name="Path 1437" d="M180.191,280.708c1.706-.853,11.685-5.8,12.623-6.4,3.838-2.3,6.226-6.738,6.226-12.964,0-5.288-1.791-11.088-4.691-16.461l-11.94,5.97c2.9,5.458,4.691,11.173,4.691,16.461C187.1,273.884,184.456,278.49,180.191,280.708Z" transform="translate(-139.338 -222.805)" opacity="0.29"/>
          <path id="Path_1438" data-name="Path 1438" d="M183.792,263.982c0,8.444-6.823,11.855-15.267,7.591-8.444-4.179-15.267-14.5-15.267-22.857s6.823-11.855,15.267-7.591S183.792,255.624,183.792,263.982Z" transform="translate(-144.645 -223.905)" fill="#999"/>
          <path id="Path_1439" data-name="Path 1439" d="M169.8,271.057c-8.444-4.179-15.267-14.5-15.267-22.857,0-4.179,1.62-7.079,4.35-8.444-3.412,1.109-5.629,4.264-5.629,9.041,0,8.444,6.823,18.678,15.267,22.857,4.264,2.132,8.188,2.3,10.917.853C176.8,273.275,173.472,272.848,169.8,271.057Z" transform="translate(-144.645 -223.815)" opacity="0.15"/>
          <path id="Path_1440" data-name="Path 1440" d="M174.46,257.487c0,3.5-2.815,4.947-6.4,3.156-3.5-1.791-6.4-6.056-6.4-9.552s2.815-4.947,6.4-3.156S174.46,253.99,174.46,257.487Z" transform="translate(-142.988 -222.356)" fill="#2d3134"/>
          <path id="Path_1441" data-name="Path 1441" d="M174.46,257.487c0,3.5-2.815,4.947-6.4,3.156-3.5-1.791-6.4-6.056-6.4-9.552s2.815-4.947,6.4-3.156S174.46,253.99,174.46,257.487Z" transform="translate(-142.988 -222.356)" opacity="0.29"/>
          <path id="Path_1442" data-name="Path 1442" d="M173.462,257.985c0,3.5-2.815,4.947-6.4,3.156-3.5-1.791-6.4-6.056-6.4-9.552s2.815-4.947,6.4-3.156C170.562,250.224,173.462,254.488,173.462,257.985Z" transform="translate(-143.185 -222.257)" fill="#2d3134"/>
          <path id="Path_1443" data-name="Path 1443" d="M193.824,270.057c0,13.22-10.661,18.508-23.881,11.94s-23.881-22.6-23.881-35.821,10.661-18.508,23.881-11.94S193.824,256.837,193.824,270.057Z" transform="translate(-146.063 -225.459)" opacity="0.11"/>
        </g>
      </g>
      <path id="Path_1444" data-name="Path 1444" d="M151.05,229.814l30.7-15.352,30.7,15.352-30.7,15.352Z" transform="translate(-140.815 -214.463)" fill="#2d3134"/>
      <path id="Path_1445" data-name="Path 1445" d="M188.64,263.962l30.7-15.352L207.4,227.287,176.7,242.64Z" transform="translate(-135.761 -211.935)" fill="#2d3134"/>
      <path id="Path_1446" data-name="Path 1446" d="M188.64,263.962l30.7-15.352L207.4,227.287,176.7,242.64Z" transform="translate(-135.761 -211.935)" opacity="0.29"/>
    </g>
    <g id="Group_431" data-name="Group 431" transform="translate(0 8.529)">
      <path id="Path_1447" data-name="Path 1447" d="M133.654,114,14.25,173.7v8.529l35.821,17.911H67.129l119.4-59.7Z" transform="translate(-14.25 -114)" fill="#2d3134"/>
      <path id="Path_1448" data-name="Path 1448" d="M14.25,163.875V172.4l35.821,17.911H67.129Z" transform="translate(-14.25 -104.173)" opacity="0.11"/>
    </g>
    <g id="Group_432" data-name="Group 432" transform="translate(211.517 114.287)">
      <path id="Path_1449" data-name="Path 1449" d="M310.354,202.35l-119.4,59.7,17.058,17.058,156.932,78.466H382l119.4-59.7Z" transform="translate(-190.95 -202.35)" fill="#2d3134"/>
      <path id="Path_1450" data-name="Path 1450" d="M190.95,252.225l17.058,17.058,156.932,78.466H382Z" transform="translate(-190.95 -192.523)" opacity="0.11"/>
    </g>
    <g id="Group_433" data-name="Group 433">
      <path id="Path_1451" data-name="Path 1451" d="M133.654,106.875l-119.4,59.7v8.529L543.041,439.5l119.4-59.7v-8.529Z" transform="translate(-14.25 -106.875)" fill="#2d3134"/>
      <path id="Path_1452" data-name="Path 1452" d="M14.25,156.75v8.529l528.791,264.4v-8.529Z" transform="translate(-14.25 -97.048)" opacity="0.11"/>
      <path id="Path_1453" data-name="Path 1453" d="M100.873,114l-6.823,3.412,528.791,264.4,6.823-3.412Z" transform="translate(1.474 -105.471)" opacity="0.15"/>
      <path id="Path_1454" data-name="Path 1454" d="M35.323,146.775,28.5,150.187l528.791,264.4,6.823-3.412Z" transform="translate(-11.442 -99.013)" opacity="0.15"/>
      <path id="Path_1455" data-name="Path 1455" d="M575.4,327.75v8.529L456,395.981v-8.529Z" transform="translate(72.791 -63.354)" opacity="0.29"/>
    </g>
    <g id="Group_434" data-name="Group 434" transform="translate(552.672 276.336)">
      <path id="Path_1456" data-name="Path 1456" d="M547.593,337.725,475.95,373.546v8.444l54.585,27.378,71.643-35.821v-8.529Z" transform="translate(-475.95 -337.725)" fill="#2d3134"/>
      <path id="Path_1457" data-name="Path 1457" d="M475.95,367.65v8.529l54.585,27.292v-8.529Z" transform="translate(-475.95 -331.829)" opacity="0.11"/>
      <path id="Path_1458" data-name="Path 1458" d="M593.193,360.525v8.529L521.55,404.875v-8.529Z" transform="translate(-466.965 -333.233)" opacity="0.29"/>
    </g>
  </g>
  <g id="Group_437" data-name="Group 437">
    <g id="Group_436" data-name="Group 436">
      <path id="Path_1459" data-name="Path 1459" d="M133.654,7.125l-119.4,59.7V194.761l528.791,264.4,119.4-59.7V271.521Z" transform="translate(-14.25 -7.125)" fill="#e0e9ff"/>
      <path id="Path_1460" data-name="Path 1460" d="M14.25,57V184.933l528.791,264.4V321.4Z" transform="translate(-14.25 2.702)" opacity="0.11"/>
      <path id="Path_1461" data-name="Path 1461" d="M575.4,228V355.933L456,415.636V287.7Z" transform="translate(72.791 36.396)" opacity="0.29"/>
    </g>
    <path id="Path_1462" data-name="Path 1462" d="M547.116,343.193,513,360.251V266.433l34.116-17.058Z" transform="translate(84.022 40.607)" opacity="0.15"/>
    <path id="Path_1463" data-name="Path 1463" d="M504.366,364.568,470.25,381.626V287.808l34.116-17.058Z" transform="translate(75.599 44.819)" opacity="0.15"/>
    <path id="Path_1464" data-name="Path 1464" d="M37.029,82.639,28.5,78.375v93.818l8.529,4.264Z" transform="translate(-11.442 6.914)" opacity="0.15"/>
    <path id="Path_1465" data-name="Path 1465" d="M51.279,89.764,42.75,85.5v93.818l8.529,4.264Z" transform="translate(-8.634 8.318)" opacity="0.15"/>
    <path id="Path_1466" data-name="Path 1466" d="M65.529,96.889,57,92.625v93.818l8.529,4.264Z" transform="translate(-5.827 9.722)" opacity="0.15"/>
    <path id="Path_1467" data-name="Path 1467" d="M79.779,104.014,71.25,99.75v93.818l8.529,4.264Z" transform="translate(-3.019 11.126)" opacity="0.15"/>
    <path id="Path_1468" data-name="Path 1468" d="M94.029,111.139,85.5,106.875v93.818l8.529,4.264Z" transform="translate(-0.211 12.529)" opacity="0.15"/>
    <path id="Path_1469" data-name="Path 1469" d="M108.279,118.264,99.75,114v93.818l8.529,4.264Z" transform="translate(2.597 13.933)" opacity="0.15"/>
    <path id="Path_1470" data-name="Path 1470" d="M122.529,125.389,114,121.125v93.818l8.529,4.264Z" transform="translate(5.404 15.337)" opacity="0.15"/>
    <path id="Path_1471" data-name="Path 1471" d="M136.779,132.514l-8.529-4.264v93.818l8.529,4.264Z" transform="translate(8.212 16.741)" opacity="0.15"/>
    <path id="Path_1472" data-name="Path 1472" d="M151.029,139.639l-8.529-4.264v93.818l8.529,4.264Z" transform="translate(11.02 18.145)" opacity="0.15"/>
    <path id="Path_1473" data-name="Path 1473" d="M165.279,146.764,156.75,142.5v93.818l8.529,4.264Z" transform="translate(13.828 19.549)" opacity="0.15"/>
    <path id="Path_1474" data-name="Path 1474" d="M179.529,153.889,171,149.625v93.818l8.529,4.264Z" transform="translate(16.636 20.953)" opacity="0.15"/>
    <path id="Path_1475" data-name="Path 1475" d="M193.779,161.014l-8.529-4.264v93.818l8.529,4.264Z" transform="translate(19.443 22.357)" opacity="0.15"/>
    <path id="Path_1476" data-name="Path 1476" d="M208.029,168.139l-8.529-4.264v93.818l8.529,4.264Z" transform="translate(22.251 23.761)" opacity="0.15"/>
    <path id="Path_1477" data-name="Path 1477" d="M222.279,175.264,213.75,171v93.818l8.529,4.264Z" transform="translate(25.059 25.165)" opacity="0.15"/>
    <path id="Path_1478" data-name="Path 1478" d="M236.529,182.389,228,178.125v93.818l8.529,4.264Z" transform="translate(27.867 26.568)" opacity="0.15"/>
    <path id="Path_1479" data-name="Path 1479" d="M250.779,189.514l-8.529-4.264v93.818l8.529,4.264Z" transform="translate(30.675 27.972)" opacity="0.15"/>
    <path id="Path_1480" data-name="Path 1480" d="M265.029,196.639l-8.529-4.264v93.818l8.529,4.264Z" transform="translate(33.482 29.376)" opacity="0.15"/>
    <path id="Path_1481" data-name="Path 1481" d="M279.279,203.764,270.75,199.5v93.818l8.529,4.264Z" transform="translate(36.29 30.78)" opacity="0.15"/>
    <path id="Path_1482" data-name="Path 1482" d="M293.529,210.889,285,206.625v93.818l8.529,4.264Z" transform="translate(39.098 32.184)" opacity="0.15"/>
    <path id="Path_1483" data-name="Path 1483" d="M307.779,218.014l-8.529-4.264v93.818l8.529,4.264Z" transform="translate(41.906 33.588)" opacity="0.15"/>
    <path id="Path_1484" data-name="Path 1484" d="M322.029,225.139l-8.529-4.264v93.818l8.529,4.264Z" transform="translate(44.713 34.992)" opacity="0.15"/>
    <path id="Path_1485" data-name="Path 1485" d="M336.279,232.264,327.75,228v93.818l8.529,4.264Z" transform="translate(47.521 36.396)" opacity="0.15"/>
    <path id="Path_1486" data-name="Path 1486" d="M350.529,239.389,342,235.125v93.818l8.529,4.264Z" transform="translate(50.329 37.8)" opacity="0.15"/>
    <path id="Path_1487" data-name="Path 1487" d="M364.779,246.514l-8.529-4.264v93.818l8.529,4.264Z" transform="translate(53.137 39.203)" opacity="0.15"/>
    <path id="Path_1488" data-name="Path 1488" d="M379.029,253.639l-8.529-4.264v93.818l8.529,4.264Z" transform="translate(55.945 40.607)" opacity="0.15"/>
    <path id="Path_1489" data-name="Path 1489" d="M393.279,260.764,384.75,256.5v93.818l8.529,4.264Z" transform="translate(58.752 42.011)" opacity="0.15"/>
    <path id="Path_1490" data-name="Path 1490" d="M407.529,267.889,399,263.625v93.818l8.529,4.264Z" transform="translate(61.56 43.415)" opacity="0.15"/>
    <path id="Path_1491" data-name="Path 1491" d="M421.779,275.014l-8.529-4.264v93.818l8.529,4.264Z" transform="translate(64.368 44.819)" opacity="0.15"/>
    <path id="Path_1492" data-name="Path 1492" d="M436.029,282.139l-8.529-4.264v93.818l8.529,4.264Z" transform="translate(67.176 46.223)" opacity="0.15"/>
    <path id="Path_1493" data-name="Path 1493" d="M450.279,289.264,441.75,285v93.818l8.529,4.264Z" transform="translate(69.984 47.627)" opacity="0.15"/>
  </g>
  <g id="Group_447" data-name="Group 447" transform="translate(562.907 273.777)">
    <path id="Path_1494" data-name="Path 1494" d="M671.614,342.187h-.853V316a2.8,2.8,0,0,0-1.279-2.3,2.506,2.506,0,0,0-2.559-.085l-1.962.938-.341-.768,1.962-.938a3.474,3.474,0,0,1,3.411.171A3.662,3.662,0,0,1,671.7,316v26.184Z" transform="translate(-449.01 -220.736)" fill="#2d3134"/>
    <path id="Path_1495" data-name="Path 1495" d="M665.974,321.12v17.825a1.941,1.941,0,0,0,3.07,1.62l.426-.341a8.165,8.165,0,0,0,3.412-6.567V315.747a1.948,1.948,0,0,0-3.156-1.535l-.682.512A8.394,8.394,0,0,0,665.974,321.12Z" transform="translate(-448.743 -220.479)" fill="#2d3134"/>
    <g id="Group_438" data-name="Group 438" transform="translate(25.587 204.702)">
      <path id="Path_1496" data-name="Path 1496" d="M541.7,409.651c-6.4-3.156-12.111-3.582-16.375-1.62h0L513.38,414h0c-4.606,2.047-7.505,6.738-7.505,13.561,0,13.22,10.661,29.254,23.881,35.821,6.482,3.241,12.452,3.582,16.717,1.535,0,0,11.855-5.885,12.879-6.482,3.838-2.3,6.226-6.738,6.226-12.964C565.577,432.252,554.916,416.218,541.7,409.651Z" transform="translate(-505.875 -406.844)" fill="#2d3134"/>
      <path id="Path_1497" data-name="Path 1497" d="M540,461.113c1.706-.853,11.685-5.8,12.623-6.4,3.838-2.3,6.226-6.738,6.226-12.964,0-5.288-1.791-11.088-4.691-16.461l-11.94,5.97c2.9,5.459,4.691,11.173,4.691,16.461C546.912,454.375,544.268,458.9,540,461.113Z" transform="translate(-499.15 -403.21)" opacity="0.29"/>
      <path id="Path_1498" data-name="Path 1498" d="M543.6,444.459c0,8.444-6.823,11.855-15.267,7.591-8.444-4.179-15.267-14.5-15.267-22.857s6.823-11.855,15.267-7.591S543.6,436.015,543.6,444.459Z" transform="translate(-504.457 -404.296)" fill="#999"/>
      <path id="Path_1499" data-name="Path 1499" d="M529.617,451.462c-8.444-4.179-15.267-14.5-15.267-22.857,0-4.179,1.621-7.079,4.35-8.444-3.412,1.109-5.629,4.264-5.629,9.041,0,8.444,6.823,18.678,15.267,22.857,4.264,2.132,8.188,2.3,10.917.853C536.611,453.68,533.285,453.253,529.617,451.462Z" transform="translate(-504.457 -404.22)" opacity="0.15"/>
      <path id="Path_1500" data-name="Path 1500" d="M534.272,437.892c0,3.5-2.814,4.947-6.4,3.156-3.5-1.791-6.4-6.055-6.4-9.552s2.815-4.947,6.4-3.156S534.272,434.395,534.272,437.892Z" transform="translate(-502.8 -402.761)" fill="#2d3134"/>
      <path id="Path_1501" data-name="Path 1501" d="M534.272,437.892c0,3.5-2.814,4.947-6.4,3.156-3.5-1.791-6.4-6.055-6.4-9.552s2.815-4.947,6.4-3.156S534.272,434.395,534.272,437.892Z" transform="translate(-502.8 -402.761)" opacity="0.29"/>
      <path id="Path_1502" data-name="Path 1502" d="M533.275,438.39c0,3.5-2.815,4.947-6.4,3.156-3.5-1.791-6.4-6.055-6.4-9.552s2.814-4.947,6.4-3.156C530.375,430.629,533.275,434.893,533.275,438.39Z" transform="translate(-502.997 -402.662)" fill="#2d3134"/>
      <path id="Path_1503" data-name="Path 1503" d="M553.637,450.461c0,13.22-10.661,18.508-23.881,11.94s-23.881-22.6-23.881-35.821,10.661-18.508,23.881-11.94S553.637,437.242,553.637,450.461Z" transform="translate(-505.875 -405.864)" opacity="0.11"/>
    </g>
    <path id="Path_1504" data-name="Path 1504" d="M711.369,388.607,603.9,334.875l-119.4,59.7v12.793l15.352,7.676S532.6,431.081,534.82,432.1c7.335,3.5,13.732,6.653,20.128,14.414,7.335,8.955,10.917,22.6,10.661,31.216l26.354,13.22,119.4-59.7Z" transform="translate(-484.5 -216.323)" fill="#ffb700"/>
    <path id="Path_1505" data-name="Path 1505" d="M593.869,355.858l73.349-36.674a2.981,2.981,0,0,1,4.179,1.706L683.934,358.5Z" transform="translate(-462.95 -219.481)" opacity="0.15"/>
    <path id="Path_1506" data-name="Path 1506" d="M603.9,261.7,484.5,321.4v85.886l107.464,53.732,119.4-59.7V388.526a224.577,224.577,0,0,0-8.1-59.788l-5.544-20.128Z" transform="translate(-484.5 -230.741)" fill="#ffb700"/>
    <g id="Group_439" data-name="Group 439" transform="translate(98.468 84.265)">
      <path id="Path_1507" data-name="Path 1507" d="M580.387,411.424a2.488,2.488,0,0,1-2.473-2.132,235.57,235.57,0,0,0-6.226-30.875l-4.094-14.755a2.527,2.527,0,0,1,1.279-2.9L676,307.2a2.361,2.361,0,0,1,1.109-.256,2.481,2.481,0,0,1,2.388,1.791l3.326,12.2a225.277,225.277,0,0,1,6.567,34.457,2.468,2.468,0,0,1-1.365,2.473L581.41,411.168A2.026,2.026,0,0,1,580.387,411.424Z" transform="translate(-566.615 -306.092)" fill="#e0e9ff"/>
      <path id="Path_1508" data-name="Path 1508" d="M677.164,307.938a1.744,1.744,0,0,1,1.62,1.194l3.326,12.2a223.148,223.148,0,0,1,6.567,34.286,1.5,1.5,0,0,1-.938,1.62L581.129,410.541a2.491,2.491,0,0,1-.768.171,1.638,1.638,0,0,1-1.62-1.45,221.3,221.3,0,0,0-6.311-30.96l-4.094-14.755a1.664,1.664,0,0,1,.853-1.876l107.293-53.561a.919.919,0,0,1,.682-.171m0-1.706a2.8,2.8,0,0,0-1.45.341L568.591,360.135a3.239,3.239,0,0,0-1.706,3.838l4.094,14.755a223.741,223.741,0,0,1,6.226,30.789,3.383,3.383,0,0,0,3.326,2.9,2.8,2.8,0,0,0,1.45-.341L688.593,358.77a3.4,3.4,0,0,0,1.876-3.326,216.65,216.65,0,0,0-6.653-34.542l-3.326-12.2a3.53,3.53,0,0,0-3.326-2.473Z" transform="translate(-566.76 -306.232)" fill="#2d3134"/>
    </g>
    <g id="Group_440" data-name="Group 440" transform="translate(108.573 129.599)">
      <path id="Path_1509" data-name="Path 1509" d="M688.721,347.982c-.426-3.667-.682-5.288-.341-2.388a3.272,3.272,0,0,1-1.876,3.326L579.892,402.226a3.368,3.368,0,0,1-4.691-1.962l.256,1.791a3.319,3.319,0,0,0,4.776,2.559l106.611-53.306A3.272,3.272,0,0,0,688.721,347.982Z" transform="translate(-575.201 -344.104)" fill="#2d3134"/>
    </g>
    <g id="Group_441" data-name="Group 441" transform="translate(43.668 118.04)">
      <path id="Path_1510" data-name="Path 1510" d="M576.363,405.182a3.03,3.03,0,0,1-.853-.171L558.281,396.4a6.385,6.385,0,0,1-3.5-5.714,9.617,9.617,0,0,0-5.458-8.785l-26.61-13.305a1.911,1.911,0,0,1-1.023-1.62V337.036a1.892,1.892,0,0,1,1.876-1.876,3.03,3.03,0,0,1,.853.171l39.148,19.616a9.856,9.856,0,0,1,4.947,5.97l3.923,14.158a223.036,223.036,0,0,1,5.8,27.975,1.75,1.75,0,0,1-.426,1.45A1.822,1.822,0,0,1,576.363,405.182Z" transform="translate(-520.84 -334.307)" fill="#e0e9ff"/>
      <path id="Path_1511" data-name="Path 1511" d="M523.709,336.153a.639.639,0,0,1,.426.085l39.148,19.616a8.753,8.753,0,0,1,4.52,5.458l3.923,14.158a237.975,237.975,0,0,1,5.8,27.889.722.722,0,0,1-.256.768.926.926,0,0,1-.768.341.639.639,0,0,1-.426-.085l-17.228-8.614a5.5,5.5,0,0,1-3.07-4.947,10.653,10.653,0,0,0-5.885-9.552l-26.61-13.305a1.049,1.049,0,0,1-.6-.938V337.092a1.017,1.017,0,0,1,1.023-.938m0-1.706a2.693,2.693,0,0,0-2.729,2.729v29.936a2.624,2.624,0,0,0,1.535,2.388l26.61,13.305a8.9,8.9,0,0,1,4.947,8.017,7.071,7.071,0,0,0,4.009,6.4l17.228,8.614a3.347,3.347,0,0,0,1.194.256,2.786,2.786,0,0,0,2.729-3.07,224.337,224.337,0,0,0-5.8-28.06L569.51,360.8a10.57,10.57,0,0,0-5.373-6.567l-39.148-19.616a6.59,6.59,0,0,0-1.279-.171Z" transform="translate(-520.98 -334.447)" fill="#2d3134"/>
    </g>
    <path id="Path_1512" data-name="Path 1512" d="M609.438,365.254c29.851,0,57.655-4.094,80.769-11.173a221.373,221.373,0,0,0-6.482-33.177l-3.326-12.2a3.334,3.334,0,0,0-4.691-2.132L568.585,360.137a3.337,3.337,0,0,0-1.791,2.218A311.142,311.142,0,0,0,609.438,365.254Z" transform="translate(-468.285 -221.969)" opacity="0.2"/>
    <g id="Group_442" data-name="Group 442" transform="translate(98.468 84.171)">
      <path id="Path_1513" data-name="Path 1513" d="M680.49,317.165a3.371,3.371,0,0,0,1.706-2.047l-1.791-6.482a3.334,3.334,0,0,0-4.691-2.132L568.591,360.151a3.239,3.239,0,0,0-1.706,3.838l1.962,7.164a3.3,3.3,0,0,0,3.326.171Z" transform="translate(-566.76 -306.153)" fill="#2d3134"/>
    </g>
    <path id="Path_1514" data-name="Path 1514" d="M484.5,384.75v12.793l15.352,7.676s32.751,16.034,34.968,17.058c7.335,3.5,13.732,6.653,20.128,14.414,7.335,8.955,10.917,22.6,10.661,31.216l26.354,13.22V438.482Z" transform="translate(-484.5 -206.496)" opacity="0.11"/>
    <path id="Path_1515" data-name="Path 1515" d="M520.838,369.431V373.7l8.529,4.264V373.7Z" transform="translate(-477.34 -209.515)" fill="#2d3134" opacity="0.3"/>
    <path id="Path_1516" data-name="Path 1516" d="M529.366,379.39l-8.529-4.264v-2.132l8.529,4.264Z" transform="translate(-477.34 -208.813)" fill="#fff" opacity="0.3"/>
    <path id="Path_1517" data-name="Path 1517" d="M631.52,350.972a1.526,1.526,0,0,0-2.217.171L600.133,384.32a1.573,1.573,0,1,0,2.388,2.047l7.847-8.955v7.676h1.962v-9.808h-.085L631.775,353.1A1.7,1.7,0,0,0,631.52,350.972Z" transform="translate(-461.795 -213.23)" fill="#2d3134"/>
    <path id="Path_1518" data-name="Path 1518" d="M654.961,338.147a1.526,1.526,0,0,0-2.218.171l-29.169,33.177a1.573,1.573,0,0,0,2.388,2.047l6.994-7.932v8.444h1.962V363.307l20.3-23.028A1.69,1.69,0,0,0,654.961,338.147Z" transform="translate(-457.176 -215.757)" fill="#2d3134"/>
    <g id="Group_444" data-name="Group 444" transform="translate(107.464 144.991)">
      <path id="Path_1519" data-name="Path 1519" d="M693.679,356.963l-5.8,2.9-30.022,75.054L610.1,458.8l-30.022-45.033-5.8,2.9" transform="translate(-574.275 -356.963)" fill="none" stroke="#000" stroke-miterlimit="10" stroke-width="0.605" opacity="0.2"/>
      <path id="Path_1520" data-name="Path 1520" d="M670.351,387.205,678.88,365.8l-93.988,46.994,8.529,12.879Z" transform="translate(-572.183 -355.222)" fill="#2d3134"/>
      <g id="Group_443" data-name="Group 443" transform="translate(25.928 43.668)">
        <path id="Path_1521" data-name="Path 1521" d="M602.347,435.572l4.861,7.335,42.474-21.237,4.861-12.2Z" transform="translate(-594.672 -390.284)" fill="#2d3134"/>
        <path id="Path_1522" data-name="Path 1522" d="M658.793,405.212l4.691-11.77-67.549,33.774,4.691,7.079Z" transform="translate(-595.935 -393.443)" fill="#2d3134"/>
      </g>
      <path id="Path_1523" data-name="Path 1523" d="M654.7,407.463l-4.691,11.77,28.742-14.414v-9.382Z" transform="translate(-559.352 -349.381)" fill="#2d3134"/>
      <path id="Path_1524" data-name="Path 1524" d="M675.948,377.583V360.525l-3.156,1.535-8.529,21.408Z" transform="translate(-556.544 -356.261)" opacity="0.2"/>
      <path id="Path_1525" data-name="Path 1525" d="M677.493,391.994v-9.382L661.117,390.8l-4.691,11.77Z" transform="translate(-558.088 -351.909)" fill="#fff"/>
      <path id="Path_1526" data-name="Path 1526" d="M585.96,421.925l-8.529-12.879-3.156,1.62v17.058Z" transform="translate(-574.275 -346.7)" opacity="0.2"/>
      <path id="Path_1527" data-name="Path 1527" d="M574.275,447.292v9.382l28.742-14.329-4.691-7.079Z" transform="translate(-574.275 -341.534)" fill="#2d3134"/>
      <path id="Path_1528" data-name="Path 1528" d="M595.341,432.727l-4.691-7.079-16.375,8.188v9.382Z" transform="translate(-574.275 -343.429)" fill="#fff"/>
      <path id="Path_1529" data-name="Path 1529" d="M660.488,410.795l14.5-7.25v-5.97l-14.5,7.25Z" transform="translate(-557.288 -348.96)" fill="#fff"/>
      <path id="Path_1530" data-name="Path 1530" d="M612.75,447.4l30.7-15.352v-5.97l-30.7,15.352Z" transform="translate(-566.694 -343.345)" fill="#fff"/>
      <path id="Path_1531" data-name="Path 1531" d="M575.7,453.189l14.5-7.25v-5.97l-14.5,7.25Z" transform="translate(-573.994 -340.607)" fill="#fff"/>
      <ellipse id="Ellipse_24" data-name="Ellipse 24" cx="2.218" cy="1.45" rx="2.218" ry="1.45" transform="matrix(-0.631, 0.776, -0.776, -0.631, 15.47, 103.564)" fill="#2d3134" opacity="0.3"/>
      <ellipse id="Ellipse_25" data-name="Ellipse 25" cx="2.218" cy="1.45" rx="2.218" ry="1.45" transform="matrix(-0.631, 0.776, -0.776, -0.631, 13.41, 103.57)" fill="#2d3134" opacity="0.3"/>
      <ellipse id="Ellipse_26" data-name="Ellipse 26" cx="3.753" cy="2.473" rx="3.753" ry="2.473" transform="matrix(-0.631, 0.776, -0.776, -0.631, 18.251, 87.834)" fill="#2d3134" opacity="0.3"/>
      <ellipse id="Ellipse_27" data-name="Ellipse 27" cx="3.753" cy="2.473" rx="3.753" ry="2.473" transform="matrix(-0.631, 0.776, -0.776, -0.631, 14.789, 87.817)" fill="#2d3134" opacity="0.3"/>
      <ellipse id="Ellipse_28" data-name="Ellipse 28" cx="3.753" cy="2.473" rx="3.753" ry="2.473" transform="matrix(-0.631, 0.776, -0.776, -0.631, 109.51, 41.782)" fill="#2d3134" opacity="0.3"/>
      <ellipse id="Ellipse_29" data-name="Ellipse 29" cx="3.753" cy="2.473" rx="3.753" ry="2.473" transform="matrix(-0.631, 0.776, -0.776, -0.631, 112.871, 38.355)" fill="#2d3134" opacity="0.3"/>
      <ellipse id="Ellipse_30" data-name="Ellipse 30" cx="2.218" cy="1.45" rx="2.218" ry="1.45" transform="matrix(-0.631, 0.776, -0.776, -0.631, 8.646, 106.975)" fill="#2d3134" opacity="0.3"/>
      <ellipse id="Ellipse_31" data-name="Ellipse 31" cx="2.218" cy="1.45" rx="2.218" ry="1.45" transform="matrix(-0.631, 0.776, -0.776, -0.631, 6.587, 106.981)" fill="#2d3134" opacity="0.3"/>
      <ellipse id="Ellipse_32" data-name="Ellipse 32" cx="2.218" cy="1.45" rx="2.218" ry="1.45" transform="matrix(-0.631, 0.776, -0.776, -0.631, 117.816, 52.396)" fill="#2d3134" opacity="0.3"/>
      <ellipse id="Ellipse_33" data-name="Ellipse 33" cx="2.218" cy="1.45" rx="2.218" ry="1.45" transform="matrix(-0.631, 0.776, -0.776, -0.631, 115.756, 52.402)" fill="#2d3134" opacity="0.3"/>
      <ellipse id="Ellipse_34" data-name="Ellipse 34" cx="2.218" cy="1.45" rx="2.218" ry="1.45" transform="matrix(-0.631, 0.776, -0.776, -0.631, 110.993, 55.807)" fill="#2d3134" opacity="0.3"/>
      <ellipse id="Ellipse_35" data-name="Ellipse 35" cx="2.218" cy="1.45" rx="2.218" ry="1.45" transform="matrix(-0.631, 0.776, -0.776, -0.631, 108.933, 55.813)" fill="#2d3134" opacity="0.3"/>
      <path id="Path_1532" data-name="Path 1532" d="M574.987,440.023l5.117-2.559V433.2l-5.117,2.559Z" transform="translate(-574.135 -341.941)" fill="#f90"/>
      <path id="Path_1533" data-name="Path 1533" d="M669.037,393l5.117-2.559v-4.264l-5.117,2.559Z" transform="translate(-555.603 -351.207)" fill="#f90"/>
    </g>
    <g id="Group_445" data-name="Group 445">
      <path id="Path_1534" data-name="Path 1534" d="M603.9,235.837l-119.4,59.7v30.7l71.643,35.821,119.4-59.7h0c0-9.808-19.531-26.781-26.781-33.263Z" transform="translate(-484.5 -235.837)" fill="#ffb700"/>
      <path id="Path_1535" data-name="Path 1535" d="M484.5,285.713v30.7l71.643,35.821h0c0-9.808-19.531-26.781-26.781-33.263Z" transform="translate(-484.5 -226.01)" opacity="0.11"/>
    </g>
    <path id="Path_1536" data-name="Path 1536" d="M561.566,398.961a4.788,4.788,0,0,1-2.644-.768,5,5,0,0,1-2.388-4.35V366.3a5.028,5.028,0,0,1,2.815-4.52l3.156-1.535.341.768-3.156,1.535a4.066,4.066,0,0,0-2.3,3.753v27.548a4.186,4.186,0,0,0,2.047,3.582,4.134,4.134,0,0,0,4.094.171l.512-.256.341.768-.512.256A5.771,5.771,0,0,1,561.566,398.961Z" transform="translate(-470.307 -211.326)" fill="#2d3134"/>
    <path id="Path_1537" data-name="Path 1537" d="M557.42,364.8l.6-.256a3.179,3.179,0,0,1,4.179,2.985v18.252a6.445,6.445,0,0,1-4.179,6.056l-.768.256a3.242,3.242,0,0,1-4.35-2.985V370.853A6.713,6.713,0,0,1,557.42,364.8Z" transform="translate(-471.023 -210.51)" fill="#2d3134"/>
    <path id="Path_1538" data-name="Path 1538" d="M497.325,403.875l1.706.853V318.842l-1.706-.853Z" transform="translate(-481.973 -219.651)" fill="#2d3134" opacity="0.3"/>
    <path id="Path_1539" data-name="Path 1539" d="M495.9,403.162l1.706.853V318.129l-1.706-.853Z" transform="translate(-482.254 -219.791)" fill="#fff" opacity="0.3"/>
    <path id="Path_1540" data-name="Path 1540" d="M574.275,482.109l119.4-59.7V379.763l-119.4,59.7Z" transform="translate(-466.811 -207.479)" opacity="0.29"/>
    <path id="Path_1541" data-name="Path 1541" d="M682.28,300.889l-119.4,59.7,5.544,20.128a224.579,224.579,0,0,1,8.1,59.788V453.3l119.4-59.7V380.8a224.574,224.574,0,0,0-8.1-59.788Z" transform="translate(-469.057 -223.02)" opacity="0.29"/>
    <path id="Path_1542" data-name="Path 1542" d="M578.318,358.485,484.5,311.576v85.886l107.464,53.732V438.4a224.577,224.577,0,0,0-8.1-59.788Z" transform="translate(-484.5 -220.914)" opacity="0.11"/>
    <g id="Group_446" data-name="Group 446" transform="translate(90.406 223.457)">
      <path id="Path_1543" data-name="Path 1543" d="M561.731,466.01l-1.706-.853V422.512l1.706.853Z" transform="translate(-560.025 -422.512)" fill="#2d3134" opacity="0.3"/>
      <path id="Path_1544" data-name="Path 1544" d="M563.156,466.722l-1.706-.853V423.225l1.706.853Z" transform="translate(-559.744 -422.372)" fill="#fff" opacity="0.3"/>
    </g>
  </g>
</svg>
