<svg xmlns="http://www.w3.org/2000/svg" width="56.795" height="43.26" viewBox="0 0 56.795 43.26">
  <path id="driving-license" d="M20.433,64.795a5.717,5.717,0,1,0-8.663,0A6.365,6.365,0,0,0,8.4,70.406V75.4a1.368,1.368,0,0,0,1.369,1.368H22.435A1.368,1.368,0,0,0,23.8,75.4V70.406A6.364,6.364,0,0,0,20.433,64.795Zm-4.331-6.7a2.978,2.978,0,0,1,.03,5.955h-.061a2.978,2.978,0,0,1,.03-5.955Zm4.965,15.937h-9.93V70.406a3.628,3.628,0,0,1,3.624-3.623h2.681a3.628,3.628,0,0,1,3.625,3.623v3.623Zm8.706-14a1.368,1.368,0,0,1,1.369-1.368h7.4a1.368,1.368,0,1,1,0,2.736h-7.4A1.368,1.368,0,0,1,29.773,60.033ZM51,44.431H5.794A5.8,5.8,0,0,0,0,50.222V81.9A5.8,5.8,0,0,0,5.794,87.69H51A5.8,5.8,0,0,0,56.794,81.9V50.222A5.8,5.8,0,0,0,51,44.431ZM54.057,81.9A3.06,3.06,0,0,1,51,84.954H47.731l.738-1.394a1.369,1.369,0,0,0-2.419-1.28l-1.417,2.674H40.547l.738-1.394a1.369,1.369,0,0,0-2.419-1.28l-1.417,2.675H33.362L34.1,83.56a1.369,1.369,0,0,0-2.419-1.28l-1.417,2.675H26.177l.738-1.394A1.369,1.369,0,0,0,24.5,82.28l-1.417,2.675H18.992l.738-1.394a1.369,1.369,0,0,0-2.419-1.28l-1.417,2.675H11.808l.738-1.394a1.369,1.369,0,0,0-2.419-1.28L8.71,84.954H5.794A3.059,3.059,0,0,1,2.737,81.9V50.222a3.059,3.059,0,0,1,3.057-3.055H9.063l-.738,1.394a1.369,1.369,0,0,0,2.419,1.28l1.417-2.674h4.087l-.738,1.394a1.369,1.369,0,0,0,2.419,1.28l1.417-2.674h4.087l-.738,1.394a1.369,1.369,0,0,0,2.419,1.28l1.417-2.674h4.087l-.738,1.394a1.369,1.369,0,0,0,2.419,1.28l1.417-2.674H37.8l-.738,1.394a1.369,1.369,0,0,0,2.419,1.28L40.9,47.167h4.087l-.738,1.394a1.369,1.369,0,0,0,2.419,1.28l1.417-2.674H51a3.06,3.06,0,0,1,3.057,3.055V81.9Zm-5.428-9.811a1.368,1.368,0,0,1-1.369,1.368H31.141a1.368,1.368,0,1,1,0-2.736H47.26A1.368,1.368,0,0,1,48.629,72.087Zm0-5.435A1.368,1.368,0,0,1,47.26,68.02H31.141a1.368,1.368,0,1,1,0-2.736H47.26A1.368,1.368,0,0,1,48.629,66.652Z" transform="translate(0 -44.43)" fill="#000f3b"/>
</svg>
