<svg xmlns="http://www.w3.org/2000/svg" width="59.33" height="44.499" viewBox="0 0 59.33 44.499">
  <g id="forklift" transform="translate(0 -3)">
    <path id="Path_1334" data-name="Path 1334" d="M57.478,38.846H40.791V4.854a1.854,1.854,0,0,0-3.708,0V26.486H34.541L28.724,10.009a6.805,6.805,0,0,0-6.41-4.536h-8.1a1.855,1.855,0,0,0-1.854,1.854V20.305H6.8A6.8,6.8,0,0,0,0,27.1V38.228a4.331,4.331,0,0,0,4.326,4.326H5.07a6.179,6.179,0,0,0,12.109,0h5.194a6.179,6.179,0,0,0,12.109,0H57.475a1.854,1.854,0,0,0,0-3.708ZM16.069,9.18h6.245a3.1,3.1,0,0,1,2.915,2.062l5.379,15.243H19.159a3.1,3.1,0,0,1-3.09-3.09V9.18Zm-4.944,34.61A2.472,2.472,0,1,1,13.6,41.319,2.475,2.475,0,0,1,11.125,43.791Zm17.305,0A2.472,2.472,0,1,1,30.9,41.319,2.475,2.475,0,0,1,28.43,43.791Z" fill="#000f3b"/>
    <path id="Path_1335" data-name="Path 1335" d="M27.271,11v1.854a1.854,1.854,0,1,1-3.708,0V11H19.236A1.237,1.237,0,0,0,18,12.236v9.889a1.237,1.237,0,0,0,1.236,1.236H31.6a1.237,1.237,0,0,0,1.236-1.236V12.236A1.237,1.237,0,0,0,31.6,11Z" transform="translate(26.499 11.777)" fill="#000f3b"/>
    <path id="Path_1336" data-name="Path 1336" d="M27.271,5V6.854a1.854,1.854,0,0,1-3.708,0V5H19.236A1.237,1.237,0,0,0,18,6.236v9.889a1.237,1.237,0,0,0,1.236,1.236H31.6a1.237,1.237,0,0,0,1.236-1.236V6.236A1.237,1.237,0,0,0,31.6,5Z" transform="translate(26.499 2.944)" fill="#000f3b"/>
  </g>
</svg>
