<svg xmlns="http://www.w3.org/2000/svg" width="82.033" height="43.26" viewBox="0 0 82.033 43.26">
  <path id="Path_1333" data-name="Path 1333" d="M82.033,121H0v30.175H9.613v8.278H4.807v4.807H14.42V151.175h4.807v8.278H43.994a7.2,7.2,0,0,0,11.6,2.965,7.193,7.193,0,0,0,9.613,0,7.206,7.206,0,1,0,8.979-11.243h7.845ZM43.58,154.647H24.033v-3.472H43.58Zm7.21,4.807a2.4,2.4,0,1,1,2.4-2.4A2.406,2.406,0,0,1,50.79,159.453Zm9.613,0a2.4,2.4,0,1,1,2.4-2.4A2.406,2.406,0,0,1,60.4,159.453Zm9.613,0a2.4,2.4,0,1,1,2.4-2.4A2.406,2.406,0,0,1,70.017,159.453Z" transform="translate(0 -121)" fill="#000f3b"/>
</svg>
