<svg xmlns="http://www.w3.org/2000/svg" width="43.26" height="43.262" viewBox="0 0 43.26 43.262">
  <path id="settings" d="M40.888,16.933,37.5,16.5a17.034,17.034,0,0,0-1.026-2.477l2.093-2.695a2.679,2.679,0,0,0-.22-3.567L35.507,4.925A2.687,2.687,0,0,0,31.929,4.7L29.238,6.788a16.973,16.973,0,0,0-2.479-1.026l-.431-3.383A2.7,2.7,0,0,0,23.65,0H19.612a2.7,2.7,0,0,0-2.679,2.374L16.5,5.763a16.777,16.777,0,0,0-2.479,1.026L11.331,4.7a2.682,2.682,0,0,0-3.567.22L4.925,7.753a2.687,2.687,0,0,0-.229,3.58l2.093,2.693A16.836,16.836,0,0,0,5.763,16.5l-3.383.431A2.7,2.7,0,0,0,0,19.612V23.65a2.7,2.7,0,0,0,2.374,2.679l3.389.431a17.034,17.034,0,0,0,1.026,2.477L4.7,31.931a2.679,2.679,0,0,0,.22,3.567l2.839,2.839a2.689,2.689,0,0,0,3.578.227l2.693-2.093A16.642,16.642,0,0,0,16.5,37.5l.431,3.382a2.7,2.7,0,0,0,2.679,2.383H23.65a2.7,2.7,0,0,0,2.679-2.374l.431-3.389a17.035,17.035,0,0,0,2.477-1.026l2.695,2.093a2.679,2.679,0,0,0,3.567-.22l2.839-2.839a2.685,2.685,0,0,0,.229-3.578l-2.093-2.693A16.642,16.642,0,0,0,37.5,26.759l3.382-.431A2.7,2.7,0,0,0,43.26,23.65V19.612a2.7,2.7,0,0,0-2.372-2.679ZM21.631,30.644a9.013,9.013,0,1,1,9.013-9.013A9.023,9.023,0,0,1,21.631,30.644Z" fill="#000f3b"/>
</svg>
