<svg xmlns="http://www.w3.org/2000/svg" width="96" height="96" viewBox="0 0 96 96">
  <g id="investment" transform="translate(-16 -16)">
    <path id="Path_1347" data-name="Path 1347" d="M24,112H46.4a8.014,8.014,0,0,0,7.839-6.4H110.4v-3.2h-4.8V35.2a1.6,1.6,0,0,0-1.6-1.6H91.2a1.6,1.6,0,0,0-1.6,1.6V49.6H78.4a1.6,1.6,0,0,0-1.6,1.6V65.6H65.6A1.6,1.6,0,0,0,64,67.2V81.6H54.4V70.4a8,8,0,0,0-3.759-6.778L56.663,57.6H62.4A1.6,1.6,0,0,0,64,56V50.263L72.663,41.6H78.4A1.6,1.6,0,0,0,80,40V34.263L88.663,25.6H94.4A1.6,1.6,0,0,0,96,24V22.4h9.6V19.2H96V17.6A1.6,1.6,0,0,0,94.4,16H88a1.6,1.6,0,0,0-1.6,1.6v5.737L77.737,32H72a1.6,1.6,0,0,0-1.6,1.6v5.737L61.737,48H56a1.6,1.6,0,0,0-1.6,1.6v5.737L47.287,62.45a8.049,8.049,0,0,0-.887-.05H24a8.009,8.009,0,0,0-8,8V104a8.009,8.009,0,0,0,8,8ZM92.8,36.8h9.6v65.6H92.8ZM80,52.8h9.6v49.6H80Zm-3.2,16v33.6H67.2V68.8ZM64,84.8v17.6H54.4V84.8ZM89.6,19.2h3.2v3.2H89.6Zm-16,16h3.2v3.2H73.6Zm-16,16h3.2v3.2H57.6ZM19.2,70.4A4.806,4.806,0,0,1,24,65.6H46.4a4.805,4.805,0,0,1,4.8,4.8V104a4.806,4.806,0,0,1-4.8,4.8H24a4.806,4.806,0,0,1-4.8-4.8Z"/>
    <path id="Path_1348" data-name="Path 1348" d="M49.6,291.2H72a1.6,1.6,0,0,0,1.6-1.6v-8A1.6,1.6,0,0,0,72,280H49.6a1.6,1.6,0,0,0-1.6,1.6v8a1.6,1.6,0,0,0,1.6,1.6Zm1.6-8H70.4V288H51.2Z" transform="translate(-25.6 -211.2)"/>
    <path id="Path_1349" data-name="Path 1349" d="M76.8,352H57.6a1.6,1.6,0,0,0-1.6,1.6v19.2a1.6,1.6,0,0,0,1.6,1.6H76.8a1.6,1.6,0,0,0,1.6-1.6V353.6a1.6,1.6,0,0,0-1.6-1.6Zm-17.6,3.2h6.4v6.4H59.2Zm0,9.6h6.4v6.4H59.2Zm16,6.4H68.8v-16h6.4Z" transform="translate(-32 -268.8)"/>
    <path id="Path_1350" data-name="Path 1350" d="M344,480h6.4v3.2H344Z" transform="translate(-262.4 -371.2)"/>
    <path id="Path_1351" data-name="Path 1351" d="M280,480h6.4v3.2H280Z" transform="translate(-211.2 -371.2)"/>
    <path id="Path_1352" data-name="Path 1352" d="M216,480h6.4v3.2H216Z" transform="translate(-160 -371.2)"/>
    <path id="Path_1353" data-name="Path 1353" d="M408,480h6.4v3.2H408Z" transform="translate(-313.6 -371.2)"/>
    <path id="Path_1354" data-name="Path 1354" d="M480,32h3.2v3.2H480Z" transform="translate(-371.2 -12.8)"/>
  </g>
</svg>
