<svg xmlns="http://www.w3.org/2000/svg" width="78.049" height="96" viewBox="0 0 78.049 96">
  <g id="guarantee" transform="translate(-47.87)">
    <g id="Group_420" data-name="Group 420" transform="translate(86.871 36.349)">
      <g id="Group_419" data-name="Group 419">
        <path id="Path_1355" data-name="Path 1355" d="M284.809,200.856h0a3.442,3.442,0,0,0-1.8-2.238c-10.508-4.816-10.772-5.507-12.806-5.507a5.308,5.308,0,0,0-2.289.521l-10.517,4.986a3.443,3.443,0,0,0-1.8,2.24,27.745,27.745,0,0,0-.914,7.1c0,8.726,3.971,16.767,12.346,22.793a5.344,5.344,0,0,0,6.355,0c8.394-6.041,12.346-14.088,12.346-22.793A27.733,27.733,0,0,0,284.809,200.856Zm-13.077,27.609a2.533,2.533,0,0,1-3.066,0c-7.628-5.49-11.176-12.723-11.176-20.508a24.837,24.837,0,0,1,.815-6.361.669.669,0,0,1,.294-.435c11-5.128,10.615-5.236,11.6-5.236s.611.113,11.6,5.236a.67.67,0,0,1,.293.434,24.832,24.832,0,0,1,.815,6.362C282.908,215.728,279.373,222.964,271.732,228.465Z" transform="translate(-254.675 -193.109)"/>
      </g>
    </g>
    <g id="Group_422" data-name="Group 422" transform="translate(47.87)">
      <g id="Group_421" data-name="Group 421" transform="translate(0)">
        <path id="Path_1356" data-name="Path 1356" d="M119.363,0H70.1a6.739,6.739,0,0,0-6.731,6.731V71.026H55.241A7.38,7.38,0,0,0,47.87,78.4v8.486A9.126,9.126,0,0,0,56.986,96h58.831a10.113,10.113,0,0,0,10.1-10.1V6.555A6.563,6.563,0,0,0,119.363,0ZM58.658,92.969A6.323,6.323,0,0,1,50.7,86.884V78.4a4.545,4.545,0,0,1,4.54-4.54h8.124v.046h0c0,.309,0,2.324.007,12.976A6.3,6.3,0,0,1,58.658,92.969ZM123.087,85.9h0a7.278,7.278,0,0,1-7.27,7.27H63.689c3.053-3.206,2.469-6.823,2.516-8.668V72.442a1.446,1.446,0,0,0-.008-.149V6.731a3.9,3.9,0,0,1,3.9-3.9h49.267a3.728,3.728,0,0,1,3.724,3.724Z" transform="translate(-47.87)"/>
      </g>
    </g>
    <g id="Group_424" data-name="Group 424" transform="translate(93.471 48.475)">
      <g id="Group_423" data-name="Group 423">
        <path id="Path_1357" data-name="Path 1357" d="M307.772,258.585a1.408,1.408,0,0,0-1.979.212c-9.43,11.635-8.812,11.039-9,11.051s0,.046-3.751-3.47a1.408,1.408,0,0,0-1.939,2.042l3.6,3.414a3.021,3.021,0,0,0,4.432-.294l8.849-10.975A1.408,1.408,0,0,0,307.772,258.585Z" transform="translate(-290.669 -258.273)"/>
      </g>
    </g>
    <g id="Group_426" data-name="Group 426" transform="translate(70.718 10.757)">
      <g id="Group_425" data-name="Group 425">
        <path id="Path_1358" data-name="Path 1358" d="M206.3,57.7H170.445a1.408,1.408,0,0,0,0,2.815H206.3a1.408,1.408,0,0,0,0-2.815Z" transform="translate(-169.037 -57.698)"/>
      </g>
    </g>
    <g id="Group_428" data-name="Group 428" transform="translate(112.388 10.757)">
      <g id="Group_427" data-name="Group 427" transform="translate(0)">
        <path id="Path_1359" data-name="Path 1359" d="M395.674,57.7H392.96a1.408,1.408,0,0,0,0,2.815h2.715a1.408,1.408,0,0,0,0-2.815Z" transform="translate(-391.552 -57.698)"/>
      </g>
    </g>
    <g id="Group_430" data-name="Group 430" transform="translate(81.691 82.224)">
      <g id="Group_429" data-name="Group 429">
        <path id="Path_1360" data-name="Path 1360" d="M261.712,438.105H228.3a1.408,1.408,0,0,0,0,2.815h33.412a1.408,1.408,0,0,0,0-2.815Z" transform="translate(-226.893 -438.105)"/>
      </g>
    </g>
    <g id="Group_432" data-name="Group 432" transform="translate(70.604 82.224)">
      <g id="Group_431" data-name="Group 431">
        <path id="Path_1361" data-name="Path 1361" d="M175.6,438.105h-5.155a1.408,1.408,0,1,0,0,2.815H175.6a1.408,1.408,0,1,0,0-2.815Z" transform="translate(-169.038 -438.105)"/>
      </g>
    </g>
    <g id="Group_434" data-name="Group 434" transform="translate(70.905 21.016)">
      <g id="Group_433" data-name="Group 433">
        <path id="Path_1362" data-name="Path 1362" d="M214.642,112.065h-44.2a1.408,1.408,0,0,0,0,2.815h44.2a1.408,1.408,0,1,0,0-2.815Z" transform="translate(-169.037 -112.065)"/>
      </g>
    </g>
    <g id="Group_436" data-name="Group 436" transform="translate(89.387 31.211)">
      <g id="Group_435" data-name="Group 435">
        <path id="Path_1363" data-name="Path 1363" d="M295.3,166.432H269.582a1.408,1.408,0,0,0,0,2.815H295.3a1.408,1.408,0,0,0,0-2.815Z" transform="translate(-268.174 -166.432)"/>
      </g>
    </g>
    <g id="Group_438" data-name="Group 438" transform="translate(70.622 31.211)">
      <g id="Group_437" data-name="Group 437">
        <path id="Path_1364" data-name="Path 1364" d="M183.3,166.432H170.446a1.408,1.408,0,1,0,0,2.815H183.3a1.408,1.408,0,1,0,0-2.815Z" transform="translate(-169.038 -166.432)"/>
      </g>
    </g>
    <g id="Group_440" data-name="Group 440" transform="translate(70.616 41.407)">
      <g id="Group_439" data-name="Group 439">
        <path id="Path_1365" data-name="Path 1365" d="M180.842,220.8h-10.4a1.408,1.408,0,0,0,0,2.815h10.4a1.408,1.408,0,0,0,0-2.815Z" transform="translate(-169.037 -220.799)"/>
      </g>
    </g>
    <g id="Group_442" data-name="Group 442" transform="translate(70.616 51.603)">
      <g id="Group_441" data-name="Group 441">
        <path id="Path_1366" data-name="Path 1366" d="M180.842,275.167h-10.4a1.408,1.408,0,1,0,0,2.815h10.4a1.408,1.408,0,0,0,0-2.815Z" transform="translate(-169.037 -275.167)"/>
      </g>
    </g>
    <g id="Group_444" data-name="Group 444" transform="translate(70.622 61.799)">
      <g id="Group_443" data-name="Group 443">
        <path id="Path_1367" data-name="Path 1367" d="M183.282,329.535H170.445a1.408,1.408,0,0,0,0,2.815h12.838a1.408,1.408,0,0,0,0-2.815Z" transform="translate(-169.037 -329.535)"/>
      </g>
    </g>
    <g id="Group_446" data-name="Group 446" transform="translate(70.635 71.994)">
      <g id="Group_445" data-name="Group 445">
        <path id="Path_1368" data-name="Path 1368" d="M187.834,383.9H170.445a1.408,1.408,0,1,0,0,2.815h17.389a1.408,1.408,0,1,0,0-2.815Z" transform="translate(-169.037 -383.902)"/>
      </g>
    </g>
  </g>
</svg>
