<svg xmlns="http://www.w3.org/2000/svg" width="96" height="60.726" viewBox="0 0 96 60.726">
  <g id="shipped" transform="translate(0 -94.062)">
    <g id="Group_408" data-name="Group 408" transform="translate(0 94.062)">
      <g id="Group_407" data-name="Group 407">
        <path id="Path_1335" data-name="Path 1335" d="M89.28,119.806l-2.486-9.944a1.5,1.5,0,0,0,1.19-1.47v-1.6a6.32,6.32,0,0,0-6.313-6.313H70.347V97.169a3.11,3.11,0,0,0-3.107-3.107H9.52a3.11,3.11,0,0,0-3.107,3.107v27.257a1.5,1.5,0,0,0,3.006,0V97.169a.1.1,0,0,1,.1-.1H67.24a.1.1,0,0,1,.1.1v27.257a1.5,1.5,0,1,0,3.006,0v-1.7h17.74a4.919,4.919,0,0,1,4.671,3.407H88.083a1.5,1.5,0,0,0-1.5,1.5v3.207a4.715,4.715,0,0,0,4.71,4.71h1.7v6.614h-3.93a9.517,9.517,0,0,0-17.993,0h-.724V130.839a1.5,1.5,0,0,0-3.006,0v11.323H36.153a9.517,9.517,0,0,0-17.993,0H9.52a.1.1,0,0,1-.1-.1v-3.307h6.514a1.5,1.5,0,1,0,0-3.006H1.5a1.5,1.5,0,1,0,0,3.006h4.91v3.307a3.11,3.11,0,0,0,3.107,3.107h8.12c0,.033,0,.067,0,.1a9.52,9.52,0,1,0,19.04,0c0-.034,0-.067,0-.1H70.549c0,.033,0,.067,0,.1a9.52,9.52,0,1,0,19.04,0c0-.034,0-.067,0-.1H94.5a1.5,1.5,0,0,0,1.5-1.5V127.632A7.928,7.928,0,0,0,89.28,119.806ZM70.347,103.482H81.67a3.311,3.311,0,0,1,3.307,3.307v.1H70.347Zm0,16.234V109.9H83.7l2.455,9.821Zm-43.19,32.067a6.514,6.514,0,1,1,6.514-6.514A6.521,6.521,0,0,1,27.157,151.782Zm52.91,0a6.514,6.514,0,1,1,6.514-6.514A6.521,6.521,0,0,1,80.067,151.782Zm12.927-19.24h-1.7a1.706,1.706,0,0,1-1.7-1.7v-1.7h3.407v3.407Z" transform="translate(0 -94.062)"/>
      </g>
    </g>
    <g id="Group_410" data-name="Group 410" transform="translate(24.05 142.162)">
      <g id="Group_409" data-name="Group 409">
        <path id="Path_1336" data-name="Path 1336" d="M131.374,350.6a3.107,3.107,0,1,0,3.107,3.107A3.11,3.11,0,0,0,131.374,350.6Z" transform="translate(-128.267 -350.597)"/>
      </g>
    </g>
    <g id="Group_412" data-name="Group 412" transform="translate(76.96 142.162)">
      <g id="Group_411" data-name="Group 411">
        <path id="Path_1337" data-name="Path 1337" d="M413.561,350.6a3.107,3.107,0,1,0,3.107,3.107A3.11,3.11,0,0,0,413.561,350.6Z" transform="translate(-410.455 -350.597)"/>
      </g>
    </g>
    <g id="Group_414" data-name="Group 414" transform="translate(38.48 135.749)">
      <g id="Group_413" data-name="Group 413">
        <path id="Path_1338" data-name="Path 1338" d="M229.177,316.393H206.73a1.5,1.5,0,1,0,0,3.006h22.447a1.5,1.5,0,0,0,0-3.006Z" transform="translate(-205.227 -316.393)"/>
      </g>
    </g>
    <g id="Group_416" data-name="Group 416" transform="translate(3.207 129.336)">
      <g id="Group_415" data-name="Group 415" transform="translate(0 0)">
        <path id="Path_1339" data-name="Path 1339" d="M37.845,282.188H18.605a1.5,1.5,0,1,0,0,3.006h19.24a1.5,1.5,0,1,0,0-3.006Z" transform="translate(-17.102 -282.188)"/>
      </g>
    </g>
    <g id="Group_418" data-name="Group 418" transform="translate(27.257 108.492)">
      <g id="Group_417" data-name="Group 417">
        <path id="Path_1340" data-name="Path 1340" d="M170.383,171.463a1.5,1.5,0,0,0-2.126,0L154.89,184.83l-6.954-6.954A1.5,1.5,0,0,0,145.81,180l8.017,8.017a1.5,1.5,0,0,0,2.125,0l14.43-14.43A1.5,1.5,0,0,0,170.383,171.463Z" transform="translate(-145.37 -171.023)"/>
      </g>
    </g>
  </g>
</svg>
